<?xml version="1.0" standalone="no"?>
<!DOCTYPE svg PUBLIC "-//W3C//DTD SVG 1.1//EN" "http://www.w3.org/Graphics/SVG/1.1/DTD/svg11.dtd" >
<svg>
<metadata>
Created by FontForge 20090914 at Mon Feb 14 10:00:19 2022
 By www-data
Copyright 2010, 2012, 2014 Adobe Systems Incorporated (http://www.adobe.com/), with Reserved Font Name 'Source'.
</metadata>
<defs>
<font id="SourceSansPro-Regular" horiz-adv-x="751" >
  <font-face 
    font-family="Source Sans Pro"
    font-weight="400"
    font-stretch="normal"
    units-per-em="2048"
    panose-1="2 11 5 3 3 4 3 2 2 4"
    ascent="1536"
    descent="-512"
    x-height="995"
    cap-height="1343"
    bbox="0 -428 1753 1722"
    underline-thickness="102"
    underline-position="-205"
    unicode-range="U+0030-U+0451"
  />
<missing-glyph horiz-adv-x="1337" 
 />
    <glyph glyph-name=".notdef" horiz-adv-x="1337" 
 />
    <glyph glyph-name="zero" unicode="0" horiz-adv-x="1017" 
d="M510 -25c-132 0 -235.001 59.333 -309.001 178s-111 286.667 -111 504c0 216.667 36.833 383.167 110.5 499.5s176.834 174.5 309.501 174.5c131.333 0 233.833 -58.167 307.5 -174.5s110.5 -282.833 110.5 -499.5c0 -217.333 -36.833 -385.333 -110.5 -504
s-176.167 -178 -307.5 -178zM509.999 111c79.333 0 141.5 44.833 186.5 134.5s67.5 226.834 67.5 411.501c0 184 -22.333 319.833 -67 407.5s-107 131.5 -187 131.5c-80.667 0 -143.5 -43.667 -188.5 -131s-67.5 -223.333 -67.5 -408s22.667 -321.834 68 -411.501
s108 -134.5 188 -134.5z" />
    <glyph glyph-name="one" unicode="1" horiz-adv-x="1017" 
d="M162 0v139h299v963h-238v108c106 18 198.333 50.333 277 97h129v-1168h270v-139h-737z" />
    <glyph glyph-name="two" unicode="2" horiz-adv-x="1017" 
d="M82 0l-0.00292969 99.9971l217 219l167 182c56.667 64.667 99.834 119.834 129.501 165.501s53.834 92 72.501 139s28 91.167 28 132.5c0 78 -21 140.167 -63 186.5s-103.333 69.5 -184 69.5c-95.333 0 -188.333 -52.667 -279 -158l-96 97
c59.333 64.667 120 113.834 182 147.501s133 50.5 213 50.5c120 0 215.167 -35 285.5 -105s105.5 -163.333 105.5 -280c0 -34.667 -4.83301 -70.167 -14.5 -106.5s-21.667 -71.166 -36 -104.499s-35.166 -70.5 -62.499 -111.5s-53.5 -78 -78.5 -111
s-58.667 -73.333 -101 -121l-112 -123.5l-127.5 -135c96 8 169 12 219 12h379v-145h-844z" />
    <glyph glyph-name="three" unicode="3" horiz-adv-x="1017" 
d="M483 -25c-173.333 0 -316.666 61.6689 -429.999 185.002l86 110c98 -103.333 209.333 -155 334 -155c80 0 145 21.833 195 65.5s75 101.5 75 173.5c0 83.333 -32.5 147.5 -97.5 192.5s-171.5 67.5 -319.5 67.5v129c246.667 0 370 81.333 370 244
c0 63.333 -20.167 113.666 -60.5 150.999s-95.166 56 -164.499 56c-96.667 0 -189.334 -44.333 -278.001 -133l-91 106c116 109.333 241 164 375 164c116 0 210.167 -29.5 282.5 -88.5s108.5 -140.167 108.5 -243.5c0 -76 -21 -139.833 -63 -191.5s-100 -91.5 -174 -119.5
v-8c83.333 -19.333 151.166 -57.833 203.499 -115.5s78.5 -129.834 78.5 -216.501c0 -112.667 -40.833 -203 -122.5 -271s-184.167 -102 -307.5 -102z" />
    <glyph glyph-name="four" unicode="4" horiz-adv-x="1017" 
d="M213 496l410 -0.000976562v378c0 51.333 3.33301 135.333 10 252h-8c-6 -11.333 -41.667 -72.666 -107 -183.999zM961 495.999v-136h-179v-360h-159v360h-588v111l559 836h188v-811h179z" />
    <glyph glyph-name="five" unicode="5" horiz-adv-x="1017" 
d="M479 -25c-166 0 -308.666 59.6689 -427.999 179.002l82 110c46 -46 95 -82.333 147 -109s113 -40 183 -40c82 0 150.333 27.5 205 82.5s82 127.167 82 216.5s-25.333 159.333 -76 210s-118.334 76 -203.001 76c-42 0 -78.833 -6.16699 -110.5 -18.5
s-69.167 -32.5 -112.5 -60.5l-90 57l43 629h653v-146h-506l-35 -387c65.333 35.333 132.333 53 201 53c118.667 0 216 -34.5 292 -103.5s114 -170.833 114 -305.5c0 -68.667 -12.333 -131.334 -37 -188.001s-57.5 -103.334 -98.5 -140.001s-87.833 -65 -140.5 -85
s-107.667 -30 -165 -30z" />
    <glyph glyph-name="six" unicode="6" horiz-adv-x="1017" 
d="M549 109c65.333 0 119.499 26.5 162.499 79.5s64.5 121.833 64.5 206.5c0 87.333 -20.333 155.333 -61 204s-100.667 73 -180 73c-44 0 -90.167 -14.167 -138.5 -42.5s-93.166 -71.5 -134.499 -129.5c10 -126.667 39.5 -223.5 88.5 -290.5s115.167 -100.5 198.5 -100.5z
M910.999 1192l-94.0029 -104.996c-26.667 32 -59 57.167 -97 75.5s-77.333 27.5 -118 27.5c-47.333 0 -90.666 -9.83301 -129.999 -29.5s-75 -50.334 -107 -92.001s-57.333 -99.334 -76 -173.001s-29 -160.5 -31 -260.5c41.333 50 89.333 89.833 144 119.5
s108.334 44.5 161.001 44.5c115.333 0 206.333 -34.5 273 -103.5s100 -169.167 100 -300.5c0 -122.667 -37.5 -223.334 -112.5 -302.001s-166.5 -118 -274.5 -118c-133.333 0 -241.833 54.167 -325.5 162.5s-125.5 263.833 -125.5 466.5c0 102 9 194.167 27 276.5
s42.5 151.166 73.5 206.499s67.833 101.5 110.5 138.5s87.834 63.833 135.501 80.5s98.167 25 151.5 25c124 0 229 -46.333 315 -139z" />
    <glyph glyph-name="seven" unicode="7" horiz-adv-x="1017" 
d="M362 0c11.333 248 45.334 459 102.001 633s149 350 277 528h-651v146h842v-105c-76.667 -98 -139.5 -191.333 -188.5 -280s-87.833 -182.167 -116.5 -280.5s-49.334 -195.5 -62.001 -291.5s-22 -212.667 -28 -350h-175z" />
    <glyph glyph-name="eight" unicode="8" horiz-adv-x="1017" 
d="M512 -25c-123.333 0 -225.501 34.0029 -306.501 102.003s-121.5 153.667 -121.5 257c0 78.667 23.333 147.5 70 206.5s105.334 107.5 176.001 145.5v8c-122 86.667 -183 187 -183 301c0 99.333 35.167 180.166 105.5 242.499s158.833 93.5 265.5 93.5
c112 0 201.5 -32.333 268.5 -97s100.5 -148.334 100.5 -251.001c0 -62 -18 -120.833 -54 -176.5s-78 -101.834 -126 -138.501v-9c32.667 -19.333 61.167 -38.5 85.5 -57.5s48 -41.833 71 -68.5s40.5 -57.667 52.5 -93s18 -74 18 -116
c0 -99.333 -39.167 -182.333 -117.5 -249s-179.833 -100 -304.5 -100zM603.999 713.003c91.333 80.667 137 168.001 137 262.001c0 66.667 -20.5 121.834 -61.5 165.501s-96.167 65.5 -165.5 65.5c-61.333 0 -111.833 -19.5 -151.5 -58.5s-59.5 -89.833 -59.5 -152.5
c0 -25.333 3.5 -48.833 10.5 -70.5s18 -41.334 33 -59.001s30.667 -33.334 47 -47.001s37.333 -27.167 63 -40.5s49 -24.5 70 -33.5s46.833 -19.5 77.5 -31.5zM515.999 100.004c76 0 137.666 21.333 184.999 64s71 98 71 166c0 31.333 -6.83301 60.5 -20.5 87.5
s-27.834 48.833 -42.501 65.5s-41.167 35.5 -79.5 56.5s-66.666 35.5 -84.999 43.5s-54.166 22.667 -107.499 44c-8.66699 3.33301 -15 6 -19 8c-121.333 -82 -182 -177 -182 -285c0 -72 26.667 -131.667 80 -179s120 -71 200 -71z" />
    <glyph glyph-name="nine" unicode="9" horiz-adv-x="1017" 
d="M481 635c45.333 0 92.167 14.1689 140.5 42.502s93.166 72.166 134.499 131.499c-11.333 127.333 -41.666 224 -90.999 290s-115.333 99 -198 99c-64.667 0 -118.667 -26.667 -162 -80s-65 -122.333 -65 -207c0 -86.667 20.333 -154.334 61 -203.001s100.667 -73 180 -73
zM104.001 113.002l95 106c26.667 -32 59 -57.333 97 -76s77.333 -28 118 -28c48 0 91.833 9.83301 131.5 29.5s75.667 50.667 108 93s57.833 100.666 76.5 174.999s28.667 162.166 30 263.499c-41.333 -52 -89.166 -93 -143.499 -123s-108.833 -45 -163.5 -45
c-115.333 0 -206 34.333 -272 103s-99 168.667 -99 300c0 122.667 37.5 223.334 112.5 302.001s165.833 118 272.5 118c134.667 0 243.5 -54.167 326.5 -162.5s124.5 -263.833 124.5 -466.5c0 -102 -9 -194.167 -27 -276.5s-42.5 -151.166 -73.5 -206.499
s-67.833 -101.5 -110.5 -138.5s-87.834 -63.833 -135.501 -80.5s-98.167 -25 -151.5 -25c-126 0 -231.333 46 -316 138z" />
    <glyph glyph-name="uni0401" unicode="&#x401;" horiz-adv-x="1079" 
d="M371 1464c-28.667 0 -52.667 9.66699 -72 29s-29 43.333 -29 72c0 29.333 9.66699 53.333 29 72s43.333 28 72 28c29.333 0 53.333 -9.33301 72 -28s28 -42.667 28 -72c0 -28.667 -9.33301 -52.667 -28 -72s-42.667 -29 -72 -29zM793 1464
c-29.333 0 -53.5 9.66699 -72.5 29s-28.5 43.333 -28.5 72c0 29.333 9.5 53.333 28.5 72s43.167 28 72.5 28c28.667 0 52.5 -9.33301 71.5 -28s28.5 -42.667 28.5 -72c0 -28.667 -9.5 -52.667 -28.5 -72s-42.833 -29 -71.5 -29zM184 0v1343h774v-143h-604v-422h510v-145
h-510v-488h625v-145h-795z" />
    <glyph glyph-name="uni0410" unicode="&#x410;" horiz-adv-x="1114" 
d="M352 547h404l-64 205c-44.667 136 -89.667 286.667 -135 452h-8c-40 -153.333 -84.333 -304 -133 -452zM926 0l-127 410h-490l-129 -410h-174l455 1343h192l455 -1343h-182z" />
    <glyph glyph-name="uni0411" unicode="&#x411;" horiz-adv-x="1187" 
d="M184 0l0.000976562 1343h830v-143h-660v-422h258c73.333 0 139.166 -6.83301 197.499 -20.5s109.833 -34.834 154.5 -63.501s79.167 -67.167 103.5 -115.5s36.5 -105.166 36.5 -170.499c0 -136.667 -42.5 -238.834 -127.5 -306.501s-203.5 -101.5 -355.5 -101.5h-437z
M354.001 135.001h238.001c115.333 0 201.5 21.833 258.5 65.5s85.5 111.167 85.5 202.5c0 84.667 -28.833 146.5 -86.5 185.5s-144.834 58.5 -261.501 58.5h-234v-512z" />
    <glyph glyph-name="uni0412" unicode="&#x412;" horiz-adv-x="1204" 
d="M184 0v1343h400c144 0 256.667 -26.333 338 -79s122 -135.334 122 -248.001c0 -68.667 -17.167 -129.667 -51.5 -183s-82.5 -90 -144.5 -110v-8c84 -16 150.667 -51.333 200 -106s74 -126.667 74 -216c0 -128 -46 -225.5 -138 -292.5s-216 -100.5 -372 -100.5h-428z
M354 772.001h199c216 0 324 73.667 324 221c0 76 -25.833 130.833 -77.5 164.5s-131.167 50.5 -238.5 50.5h-207v-436zM354 135.001l234 -0.000976562c118 0 208.5 21.833 271.5 65.5s94.5 109.834 94.5 198.501c0 161.333 -122 242 -366 242h-234v-506z" />
    <glyph glyph-name="uni0413" unicode="&#x413;" horiz-adv-x="1019" 
d="M184 0v1343h774v-143h-604v-1200h-170z" />
    <glyph glyph-name="uni0414" unicode="&#x414;" horiz-adv-x="1306" 
d="M932 1200l-375 0.000976562c-13.333 -75.333 -29.833 -175 -49.5 -299s-36.5 -224.333 -50.5 -301c-42 -220.667 -92 -372.334 -150 -455.001h625v1055zM1104 145.001l149 0.000976562v-102l-18 -428h-150v385h-864v-385h-149l-19 428v102h62
c69.333 29.333 131.333 190.666 186 483.999c36.667 198 77.667 436 123 714h680v-1198z" />
    <glyph glyph-name="uni0415" unicode="&#x415;" horiz-adv-x="1079" 
d="M184 0v1343h774v-143h-604v-422h510v-145h-510v-488h625v-145h-795z" />
    <glyph glyph-name="uni0416" unicode="&#x416;" horiz-adv-x="1648" 
d="M1227 717l407.001 -717h-186l-348 637h-195v-637h-162v637h-194l-348 -637h-189l410 717l-141 317c-32.667 69.333 -62 115 -88 137s-55.667 33 -89 33c-18.667 0 -35 -2.66699 -49 -8l-28 160c20 8 44.333 12 73 12c64.667 0 119.667 -17.333 165 -52
s91.333 -100.667 138 -198l158 -342h182v567h162v-567h180l160 342c46.667 97.333 92.667 163.333 138 198s100.333 52 165 52c29.333 0 54 -4 74 -12l-29 -160c-16 5.33301 -32.333 8 -49 8c-33.333 0 -62.833 -11 -88.5 -33s-54.834 -67.667 -87.501 -137z" />
    <glyph glyph-name="uni0417" unicode="&#x417;" horiz-adv-x="1134" 
d="M569 -25c-98.667 0 -187.165 15.6641 -265.498 46.9971s-150.833 81.333 -217.5 150l96 117c59.333 -59.333 118.666 -101.5 177.999 -126.5s128.333 -37.5 207 -37.5c90.667 0 166.334 23.5 227.001 70.5s91 111.5 91 193.5c0 84.667 -31.333 147.834 -94 189.501
s-152.334 62.5 -269.001 62.5h-151v131h110c116 0 200.667 19.333 254 58s80 96.667 80 174c0 68.667 -24.167 121.667 -72.5 159s-111.5 56 -189.5 56c-120 0 -225 -41.667 -315 -125l-93 114c49.333 48.667 110.333 87.5 183 116.5s149 43.5 229 43.5
c128 0 231 -30.833 309 -92.5s117 -145.5 117 -251.5c0 -71.333 -17.5 -133.833 -52.5 -187.5s-84.5 -92.167 -148.5 -115.5v-8c80.667 -16 146 -53 196 -111s75 -131.667 75 -221c0 -83.333 -21.833 -156.166 -65.5 -218.499s-101.834 -109.166 -174.501 -140.499
s-154 -47 -244 -47z" />
    <glyph glyph-name="uni0418" unicode="&#x418;" horiz-adv-x="1343" 
d="M184 0l0.000976562 1343h168v-694c0 -60.667 -6.66699 -203.334 -20 -428.001h8l145 275l494 847h180v-1343h-168v702c0 42.667 1 85.834 3 129.501s5.16699 98.834 9.5 165.501s7.16602 108.334 8.49902 125.001h-8l-146 -274l-493 -848h-181z" />
    <glyph glyph-name="uni0419" unicode="&#x419;" horiz-adv-x="1343" 
d="M184 0l0.000976562 1343h168v-694c0 -60.667 -6.66699 -203.334 -20 -428.001h8l145 275l494 847h180v-1343h-168v702c0 42.667 1 85.834 3 129.501s5.16699 98.834 9.5 165.501s7.16602 108.334 8.49902 125.001h-8l-146 -274l-493 -848h-181zM680.001 1452
c-54.667 0 -102.167 7.5 -142.5 22.5s-72 35.667 -95 62s-40.167 54.666 -51.5 84.999s-18 63.833 -20 100.5h147c2 -52.667 16 -95.167 42 -127.5s66 -48.5 120 -48.5s94 16.167 120 48.5s40 74.833 42 127.5h147c-2 -36.667 -8.66699 -70.167 -20 -100.5
s-28.5 -58.666 -51.5 -84.999s-54.667 -47 -95 -62s-87.833 -22.5 -142.5 -22.5z" />
    <glyph glyph-name="uni041A" unicode="&#x41a;" horiz-adv-x="1187" 
d="M721 717l463.001 -717h-187l-413 637h-230v-637h-170v1343h170v-567h232l188 342c55.333 99.333 104.166 165.833 146.499 199.5s94.5 50.5 156.5 50.5c29.333 0 54 -4 74 -12l-29 -160c-14 5.33301 -30.333 8 -49 8c-30 0 -57 -11 -81 -33s-55 -67.667 -93 -137z" />
    <glyph glyph-name="uni041B" unicode="&#x41b;" horiz-adv-x="1290" 
d="M115 -25c-43.333 0 -81.667 6.33301 -115 19l35 158c22 -8.66699 41 -13 57 -13c26.667 0 49.167 7.5 67.5 22.5s38.166 49.833 59.499 104.5s42 132.667 62 234c41.333 212 92.333 493 153 843h672v-1343h-170v1200h-369l-127 -719
c-25.333 -136 -53.166 -241 -83.499 -315s-64 -124.333 -101 -151s-83.833 -40 -140.5 -40z" />
    <glyph glyph-name="uni041C" unicode="&#x41c;" horiz-adv-x="1488" 
d="M184 0l-0.000976562 1343h205l258 -716l48 -140.5l48 -140.5h9c11.333 30.667 26.833 77.5 46.5 140.5s34.834 109.833 45.501 140.5l254 716h207v-1343h-160v739c0 47.333 7.33301 180 22 398h-8l-106 -306l-254 -696h-113l-254 696l-106 306h-9
c14 -208 21 -340.667 21 -398v-739h-154z" />
    <glyph glyph-name="uni041D" unicode="&#x41d;" horiz-adv-x="1335" 
d="M184 0v1343h170v-563h625v563h172v-1343h-172v633h-625v-633h-170z" />
    <glyph glyph-name="uni041E" unicode="&#x41e;" horiz-adv-x="1359" 
d="M680 -25c-170.667 0 -309 63.666 -415 190.999s-159 298 -159 512c0 212 52.833 380 158.5 504s244.167 186 415.5 186s310 -62.167 416 -186.5s159 -292.166 159 -503.499c0 -214 -53.167 -384.667 -159.5 -512s-244.833 -191 -415.5 -191zM680 124.999
c120 0 216.167 50.167 288.5 150.5s108.5 234.5 108.5 402.5c0 166 -36 297.667 -108 395s-168.333 146 -289 146s-217 -48.667 -289 -146s-108 -229 -108 -395c0 -168 36.167 -302.167 108.5 -402.5s168.5 -150.5 288.5 -150.5z" />
    <glyph glyph-name="uni041F" unicode="&#x41f;" horiz-adv-x="1320" 
d="M184 0v1343h953v-1343h-170v1200h-613v-1200h-170z" />
    <glyph glyph-name="uni0420" unicode="&#x420;" horiz-adv-x="1159" 
d="M184 0l-0.00195312 1343h383c78 0 146.833 -6.83301 206.5 -20.5s112.334 -35.667 158.001 -66s80.334 -71.333 104.001 -123s35.5 -113.5 35.5 -185.5c0 -137.333 -44.5 -241 -133.5 -311s-209.833 -105 -362.5 -105h-221v-532h-170zM353.998 672l201 -0.00195312
c117.333 0 204.333 22.333 261 67s85 114.334 85 209.001s-28.5 161.334 -85.5 200.001s-146.5 58 -268.5 58h-193v-534z" />
    <glyph glyph-name="uni0421" unicode="&#x421;" horiz-adv-x="1169" 
d="M692 -25c-84 0 -161.833 16.001 -233.5 48.001s-133.5 77.333 -185.5 136s-92.833 132 -122.5 220s-44.5 185.667 -44.5 293c0 140.667 26 264.167 78 370.5s122.833 187.166 212.5 242.499s191.5 83 305.5 83c76.667 0 146.5 -15.5 209.5 -46.5
s116.167 -70.833 159.5 -119.5l-92 -110c-80 84.667 -171.333 127 -274 127c-128 0 -230.333 -49 -307 -147s-115 -230 -115 -396c0 -168.667 37.333 -302.667 112 -402s175.667 -149 303 -149c116 0 220 50.333 312 151l94 -106c-112 -130 -249.333 -195 -412 -195z" />
    <glyph glyph-name="uni0422" unicode="&#x422;" horiz-adv-x="1097" 
d="M463 0v1200h-406v143h983v-143h-405v-1200h-172z" />
    <glyph glyph-name="uni0423" unicode="&#x423;" horiz-adv-x="1052" 
d="M279 -25c-52.667 0 -97.335 7 -134.002 21l35 154c28.667 -10 57.334 -15 86.001 -15c43.333 0 78.5 8.5 105.5 25.5s49.833 44.833 68.5 83.5l29 71l-459 1028h183l249 -598l103 -264h8l94 264l232 598h174l-441 -1099c-36 -88 -80.167 -154.833 -132.5 -200.5
s-119.166 -68.5 -200.499 -68.5z" />
    <glyph glyph-name="uni0424" unicode="&#x424;" horiz-adv-x="1499" 
d="M825 1047l-0.00195312 -747.999c132.667 4 234.834 39.167 306.501 105.5s107.5 157.5 107.5 273.5c0 115.333 -35.667 204.666 -107 267.999s-173.666 97 -306.999 101zM673.998 299.001l-0.00195312 747.999c-133.333 -4 -235.666 -37.667 -306.999 -101
s-107 -152.666 -107 -267.999c0 -116 35.833 -207.167 107.5 -273.5s173.834 -101.5 306.501 -105.5zM824.996 1368v-190c182.667 -5.33301 324.667 -51.166 426 -137.499s152 -207.166 152 -362.499c0 -156.667 -50.833 -279.334 -152.5 -368.001s-243.5 -136 -425.5 -142
v-193h-151v193c-183.333 6 -325.5 53.333 -426.5 142s-151.5 211.334 -151.5 368.001c0 155.333 50.5 276.166 151.5 362.499s243.167 132.166 426.5 137.499v190h151z" />
    <glyph glyph-name="uni0425" unicode="&#x425;" horiz-adv-x="1050" 
d="M31 0l391 694l-365 649h189l182 -344c16 -28 50.667 -92.667 104 -194h9c42.667 89.333 74.667 154 96 194l178 344h180l-366 -657l391 -686h-189l-196 362l-50 93.5l-65 122.5h-8l-106 -216l-195 -362h-180z" />
    <glyph glyph-name="uni0426" unicode="&#x426;" horiz-adv-x="1314" 
d="M1112 145h150v-102l-19 -428h-149v385h-910v1343h170v-1198h588v1198h170v-1198z" />
    <glyph glyph-name="uni0427" unicode="&#x427;" horiz-adv-x="1224" 
d="M870 0l0.000976562 602.001c-73.333 -13.333 -155 -20 -245 -20c-78 0 -146.167 7.66699 -204.5 23s-109.166 40 -152.499 74s-76 79.5 -98 136.5s-33 125.167 -33 204.5v323h168v-323c0 -108.667 27.667 -185.334 83 -230.001s139.666 -67 252.999 -67
c91.333 0 167.666 6.66699 228.999 20v600h170v-1343h-170z" />
    <glyph glyph-name="uni0428" unicode="&#x428;" horiz-adv-x="1771" 
d="M184 0v1343h168v-1198h451v1198h166v-1198h450v1198h168v-1343h-1403z" />
    <glyph glyph-name="uni0429" unicode="&#x429;" horiz-adv-x="1789" 
d="M1587 145h150v-102l-19 -428h-149v385h-1385v1343h168v-1198h451v1198h166v-1198h450v1198h168v-1198z" />
    <glyph glyph-name="uni042A" unicode="&#x42a;" horiz-adv-x="1474" 
d="M487 0v1200h-430v143h602v-550h222c73.333 0 140 -7.5 200 -22.5s112.833 -37.5 158.5 -67.5s81.167 -69.5 106.5 -118.5s38 -105.833 38 -170.5c0 -139.333 -43.333 -243.166 -130 -311.499s-207 -102.5 -361 -102.5h-406zM659 138.999h212.999
c114.667 0 200.834 21.833 258.501 65.5s86.5 112.167 86.5 205.5c0 81.333 -30.5 142.5 -91.5 183.5s-150.167 61.5 -267.5 61.5h-199v-516z" />
    <glyph glyph-name="uni042B" unicode="&#x42b;" horiz-adv-x="1634" 
d="M184 0v1343h170v-550h209c154.667 0 276 -31 364 -93s132 -157.333 132 -286c0 -139.333 -43.333 -243.166 -130 -311.499s-208 -102.5 -364 -102.5h-381zM354 138.999h191c114.667 0 201 21.833 259 65.5s87 112.167 87 205.5c0 84 -29.167 145.833 -87.5 185.5
s-146.5 59.5 -264.5 59.5h-185v-516zM1280 -0.000976562v1343h170v-1343h-170z" />
    <glyph glyph-name="uni042C" unicode="&#x42c;" horiz-adv-x="1187" 
d="M184 0v1343h170v-550h248c154.667 0 276 -31 364 -93s132 -157.333 132 -286c0 -139.333 -43.5 -243.166 -130.5 -311.499s-208.167 -102.5 -363.5 -102.5h-420zM354 138.999h228c116 0 203 21.833 261 65.5s87 112.167 87 205.5c0 84 -29.167 145.833 -87.5 185.5
s-146.5 59.5 -264.5 59.5h-224v-516z" />
    <glyph glyph-name="uni042D" unicode="&#x42d;" horiz-adv-x="1169" 
d="M190 1092l-93.999 110.001c46.667 47.333 105.667 86.833 177 118.5s146.333 47.5 225 47.5c172.667 0 310 -60.333 412 -181s153 -292.334 153 -515.001c0 -112 -14 -212.333 -42 -301s-67.167 -161.834 -117.5 -219.501s-109.833 -101.5 -178.5 -131.5
s-144.334 -45 -227.001 -45c-168.667 0 -312.667 65 -432 195l94 106c96.667 -100.667 208 -151 334 -151c120 0 214.833 43.167 284.5 129.5s107.834 212.5 114.501 378.5h-565v145h561c-12.667 142.667 -53 251.834 -121 327.501s-160 113.5 -276 113.5
c-116.667 0 -217.334 -42.333 -302.001 -127z" />
    <glyph glyph-name="uni042E" unicode="&#x42e;" horiz-adv-x="1859" 
d="M1200 125c116 0 207.833 50 275.5 150s101.5 234.333 101.5 403c0 167.333 -33.667 299.333 -101 396s-159.333 145 -276 145c-115.333 0 -206.666 -48.5 -273.999 -145.5s-101 -228.833 -101 -395.5c0 -168.667 33.667 -303 101 -403s158.666 -150 273.999 -150z
M354 780h302.999c16.667 184 73.334 328 170.001 432s221 156 373 156c166.667 0 300.5 -62 401.5 -186s151.5 -292 151.5 -504c0 -214.667 -50.667 -385.5 -152 -512.5s-235 -190.5 -401 -190.5c-159.333 0 -288.333 59.167 -387 177.5s-152 278.5 -160 480.5h-299v-633
h-170v1343h170v-563z" />
    <glyph glyph-name="uni042F" unicode="&#x42f;" horiz-adv-x="1191" 
d="M838 707v499h-226c-108.667 0 -190 -18.5 -244 -55.5s-81 -98.167 -81 -183.5c0 -86 27.833 -150.833 83.5 -194.5s136.167 -65.5 241.5 -65.5h226zM588 1343l420.001 -0.000976562v-1343h-170v567h-248l-348 -567h-197l375 586
c-92.667 24 -166.334 67.833 -221.001 131.5s-82 146.834 -82 249.501c0 250.667 157 376 471 376z" />
    <glyph glyph-name="uni0430" unicode="&#x430;" horiz-adv-x="1032" 
d="M397 -25c-85.333 0 -155.167 25.333 -209.5 76s-81.5 119.667 -81.5 207c0 108 48.5 191.333 145.5 250s252.167 99.667 465.5 123c0 166.667 -68.333 250 -205 250c-93.333 0 -192.333 -35.667 -297 -107l-65 117c134 86 264.333 129 391 129
c118 0 205.167 -36 261.5 -108s84.5 -172.667 84.5 -302v-610h-139l-15 119h-6c-116 -96 -226 -144 -330 -144zM445.999 111c46 0 90.001 10.833 132.001 32.5s88.333 55.167 139 100.5v276c-160.667 -20 -275.334 -50.167 -344.001 -90.5s-103 -93.5 -103 -159.5
c0 -54 16.167 -94 48.5 -120s74.833 -39 127.5 -39z" />
    <glyph glyph-name="uni0431" unicode="&#x431;" horiz-adv-x="1114" 
d="M578 115c77.333 0 140.667 35.167 190 105.5s74 161.5 74 273.5c0 103.333 -23.5 185 -70.5 245s-113.167 90 -198.5 90c-111.333 0 -212.333 -60 -303 -180v-78c0 -146 26.167 -258.5 78.5 -337.5s128.833 -118.5 229.5 -118.5zM940.001 1495l32.999 -154.001
c-43.333 -28.667 -111.666 -49.667 -204.999 -63c-55.333 -8 -97.666 -14.667 -126.999 -20s-63.666 -13.5 -102.999 -24.5s-68.666 -23.333 -87.999 -37s-40.833 -32 -64.5 -55s-41.334 -50.167 -53.001 -81.5s-22.334 -69 -32.001 -113s-16.834 -95.333 -21.501 -154
c43.333 53.333 94.333 94.166 153 122.499s120 42.5 184 42.5c120 0 216.667 -41.5 290 -124.5s110 -196.167 110 -339.5c0 -155.333 -42 -280.666 -126 -375.999s-188 -143 -312 -143c-148.667 0 -264 54.833 -346 164.5s-123 264.5 -123 464.5c0 74 3.16699 142 9.5 204
s14.833 117.333 25.5 166s25 92.834 43 132.501s37 74.167 57 103.5s44.333 55.666 73 78.999s57.167 42.833 85.5 58.5s61.5 29.5 99.5 41.5s74.5 21.833 109.5 29.5s75.5 14.834 121.5 21.501c54.667 8 95.167 15.5 121.5 22.5s54.833 17.833 85.5 32.5z" />
    <glyph glyph-name="uni0432" unicode="&#x432;" horiz-adv-x="1040" 
d="M168 0v995.001h383c114.667 0 204.5 -20.5 269.5 -61.5s97.5 -104.5 97.5 -190.5c0 -54 -14.5 -99 -43.5 -135s-69.833 -62 -122.5 -78v-6c62.667 -14.667 113.167 -41.5 151.5 -80.5s57.5 -91.833 57.5 -158.5c0 -94.667 -35.667 -165.834 -107 -213.501
s-167 -71.5 -287 -71.5h-399zM334 578.001h188c154.667 0 232 49.667 232 149c0 98 -73 147 -219 147h-201v-296zM334 121.001l215 -0.000976562c80.667 0 141.5 15 182.5 45s61.5 73 61.5 129c0 50.667 -21.667 90.334 -65 119.001s-106.333 43 -189 43h-205v-336z" />
    <glyph glyph-name="uni0433" unicode="&#x433;" horiz-adv-x="841" 
d="M168 0v995h620v-137h-452v-858h-168z" />
    <glyph glyph-name="uni0434" unicode="&#x434;" horiz-adv-x="1089" 
d="M414 858l-38.999 -336.001c-20.667 -179.333 -56.334 -307.666 -107.001 -384.999h463v721h-317zM899.001 136.999h145.001v-106l-16 -383h-145v352h-680v-352h-146l-18 383v106h49c20.667 12 38.167 28.833 52.5 50.5s29.166 62.667 44.499 123s29.333 141.833 42 244.5
l54 440h618v-858z" />
    <glyph glyph-name="uni0435" unicode="&#x435;" horiz-adv-x="1015" 
d="M571 -25c-136.667 0 -250.334 47.167 -341.001 141.5s-136 220.833 -136 379.5c0 78.667 12.667 151.5 38 218.5s58.833 122.5 100.5 166.5s89.167 78.167 142.5 102.5s108.666 36.5 165.999 36.5c125.333 0 222.833 -41.833 292.5 -125.5s104.5 -197.5 104.5 -341.5
c0 -39.333 -2 -71.333 -6 -96h-672c6 -105.333 39 -189.333 99 -252s137.667 -94 233 -94c84.667 0 167.334 25.667 248.001 77l59 -110c-107.333 -68.667 -216.666 -103 -327.999 -103zM258 578l533.002 -0.000976562c0 100 -21.333 176.5 -64 229.5
s-103.334 79.5 -182.001 79.5c-72.667 0 -136.334 -27.667 -191.001 -83s-86.667 -130.666 -96 -225.999z" />
    <glyph glyph-name="uni0436" unicode="&#x436;" horiz-adv-x="1394" 
d="M1055 524l313 -524h-182l-250 449h-164v-449h-149v449h-164l-250 -449h-182l313 524l-80 197c-22 53.333 -43.833 89.166 -65.5 107.499s-47.5 27.5 -77.5 27.5c-14 0 -25 -1.33301 -33 -4l-31 158c18 6.66699 38 10 60 10c58 0 107.833 -15.667 149.5 -47
s79.167 -86.666 112.5 -165.999l94 -221h154v409h149v-409h154l94 221c33.333 79.333 70.833 134.666 112.5 165.999s91.5 47 149.5 47c22.667 0 41.667 -3.33301 57 -10l-28 -158c-8 2.66699 -19 4 -33 4c-30 0 -56.167 -9.16699 -78.5 -27.5s-44.5 -54.166 -66.5 -107.499
z" />
    <glyph glyph-name="uni0437" unicode="&#x437;" horiz-adv-x="933" 
d="M453 -25c-148 0 -273.668 42.334 -377.001 127.001l71 109c80.667 -66.667 177.667 -100 291 -100c70 0 128.833 16.167 176.5 48.5s71.5 75.5 71.5 129.5c0 56 -21.833 98 -65.5 126s-106.5 42 -188.5 42h-137v121h113c78.667 0 138.167 13.667 178.5 41
s60.5 66 60.5 116c0 48.667 -18.833 86.167 -56.5 112.5s-87.834 39.5 -150.501 39.5c-55.333 0 -103.666 -7.16699 -144.999 -21.5s-83 -36.5 -125 -66.5l-72 110c104.667 74 221.667 111 351 111c104 0 190.333 -23 259 -69s103 -112.333 103 -199
c0 -48 -14.667 -91.833 -44 -131.5s-69.333 -69.834 -120 -90.501v-8c62.667 -16.667 112.834 -45.334 150.501 -86.001s56.5 -94.667 56.5 -162c0 -59.333 -18.667 -112.166 -56 -158.499s-86.333 -81.333 -147 -105s-126.667 -35.5 -198 -35.5z" />
    <glyph glyph-name="uni0438" unicode="&#x438;" horiz-adv-x="1157" 
d="M168 0l-0.000976562 994.999h164v-413c0 -64.667 -5.66699 -187 -17 -367h9c6.66699 11.333 26.834 43.833 60.501 97.5s57.167 92.167 70.5 115.5l376 567h158v-995h-164v414c0 62.667 5.66699 185.334 17 368.001h-8l-64.5 -103.5l-67.5 -109.5l-378 -569h-156z" />
    <glyph glyph-name="uni0439" unicode="&#x439;" horiz-adv-x="1157" 
d="M584 1174c-55.333 0 -103.834 8.66699 -145.501 26s-74.667 41 -99 71s-42.833 63 -55.5 99s-20 75 -22 117h139c4.66699 -143.333 65.667 -215 183 -215c116.667 0 177.334 71.667 182.001 215h139c-2 -42 -9.33301 -81 -22 -117s-31 -69 -55 -99
s-56.833 -53.667 -98.5 -71s-90.167 -26 -145.5 -26zM167.999 0l-0.000976562 994.999h164v-413c0 -64.667 -5.66699 -187 -17 -367h9c6.66699 11.333 26.834 43.833 60.501 97.5s57.167 92.167 70.5 115.5l376 567h158v-995h-164v414c0 62.667 5.66699 185.334 17 368.001
h-8l-64.5 -103.5l-67.5 -109.5l-378 -569h-156z" />
    <glyph glyph-name="uni043A" unicode="&#x43a;" horiz-adv-x="1019" 
d="M655 524l338 -524.001h-184l-277 449h-196v-449h-168v995h168v-409h192l99 221c36 82.667 74 138.834 114 168.501s89.333 44.5 148 44.5c22.667 0 41.667 -3.33301 57 -10l-28 -158c-8 2.66699 -19 4 -33 4c-30 0 -55.833 -9 -77.5 -27s-44.5 -54 -68.5 -108z" />
    <glyph glyph-name="uni043B" unicode="&#x43b;" horiz-adv-x="1087" 
d="M111 -25c-28 0 -58.3311 5.66699 -90.998 17l33 155c16 -5.33301 31 -8 45 -8c71.333 0 115.666 70.333 132.999 211l76 645h613v-995h-170v858h-310c-20.667 -187.333 -42.334 -371 -65.001 -551c-29.333 -221.333 -117.333 -332 -264 -332z" />
    <glyph glyph-name="uni043C" unicode="&#x43c;" horiz-adv-x="1296" 
d="M168 0v995h194l195 -467l90 -241h8c47.333 122 77.333 202.333 90 241l191 467h192v-995h-153v446c0 60 6.66699 175 20 345h-8l-92 -236l-188 -461h-113l-193 461l-92 236h-8c12 -204 18 -319 18 -345v-446h-151z" />
    <glyph glyph-name="uni043D" unicode="&#x43d;" horiz-adv-x="1150" 
d="M168 0v995h168v-403h479v403h168v-995h-168v442h-479v-442h-168z" />
    <glyph glyph-name="uni043E" unicode="&#x43e;" horiz-adv-x="1110" 
d="M555 -25c-61.333 0 -119.666 11.833 -174.999 35.5s-104.333 57.167 -147 100.5s-76.5 98.333 -101.5 165s-37.5 140 -37.5 220c0 81.333 12.5 155.5 37.5 222.5s58.833 122.167 101.5 165.5s91.667 76.833 147 100.5s113.666 35.5 174.999 35.5
s119.666 -11.833 174.999 -35.5s104.333 -57.167 147 -100.5s76.5 -98.5 101.5 -165.5s37.5 -141.167 37.5 -222.5c0 -80 -12.5 -153.333 -37.5 -220s-58.833 -121.667 -101.5 -165s-91.667 -76.833 -147 -100.5s-113.666 -35.5 -174.999 -35.5zM555 115
c86 0 155.333 35.167 208 105.5s79 162.166 79 275.499c0 114.667 -26.333 207.5 -79 278.5s-122 106.5 -208 106.5c-85.333 0 -154.5 -35.5 -207.5 -106.5s-79.5 -163.833 -79.5 -278.5c0 -113.333 26.5 -205.166 79.5 -275.499s122.167 -105.5 207.5 -105.5z" />
    <glyph glyph-name="uni043F" unicode="&#x43f;" horiz-adv-x="1132" 
d="M168 0v995h797v-995h-168v858h-461v-858h-168z" />
    <glyph glyph-name="uni0440" unicode="&#x440;" horiz-adv-x="1136" 
d="M168 -420l0.000976562 1415h139l15 -114h6c110 92.667 215.667 139 317 139c126 0 223 -45.333 291 -136s102 -214.667 102 -372c0 -82 -11.667 -157.333 -35 -226s-54.833 -125.334 -94.5 -170.001s-85.334 -79.334 -137.001 -104.001s-106.167 -37 -163.5 -37
c-86 0 -178 38.333 -276 115l4 -174v-336h-168zM580.001 117.002c83.333 0 151.501 35.667 204.501 107s79.5 167.333 79.5 288c0 115.333 -21.167 205.333 -63.5 270s-108.5 97 -198.5 97c-76.667 0 -165.334 -45.333 -266.001 -136v-522c82 -69.333 163.333 -104 244 -104
z" />
    <glyph glyph-name="uni0441" unicode="&#x441;" horiz-adv-x="933" 
d="M561 -25c-136 0 -247.832 46.666 -335.499 139.999s-131.5 220.333 -131.5 381c0 81.333 12.833 155.5 38.5 222.5s60.667 122.167 105 165.5s95.166 76.833 152.499 100.5s118.333 35.5 183 35.5c107.333 0 204.333 -39 291 -117l-86 -110
c-65.333 58.667 -131.333 88 -198 88c-90.667 0 -165.334 -35.667 -224.001 -107s-88 -164 -88 -278c0 -113.333 28.333 -205.166 85 -275.499s130.667 -105.5 222 -105.5c82 0 160 33.333 234 100l74 -113c-95.333 -84.667 -202.666 -127 -321.999 -127z" />
    <glyph glyph-name="uni0442" unicode="&#x442;" horiz-adv-x="942" 
d="M387 0v858h-334v137h836v-137h-334v-858h-168z" />
    <glyph glyph-name="uni0443" unicode="&#x443;" horiz-adv-x="956" 
d="M184 -428c-40.667 0 -79.3301 6.66699 -115.997 20l32 134c33.333 -10 58.666 -15 75.999 -15c102.667 0 177.667 71 225 213l23 74l-399 997h174l202 -551l97 -280h8l45 150c19.333 66 32.333 109.333 39 130l178 551h164l-375 -1077
c-18.667 -52.667 -38.667 -98.667 -60 -138s-46.833 -75.333 -76.5 -108s-64.334 -57.5 -104.001 -74.5s-83.834 -25.5 -132.501 -25.5z" />
    <glyph glyph-name="uni0444" unicode="&#x444;" horiz-adv-x="1503" 
d="M670 -420l0.00195312 319.999l4 149c-66 -49.333 -133 -74 -201 -74c-115.333 0 -207 45.833 -275 137.5s-102 219.5 -102 383.5c0 156.667 36.667 283.167 110 379.5s162.333 144.5 267 144.5c64.667 0 131.667 -24 201 -72l-4 148v362h164v-362l-5 -152
c70.667 50.667 142.334 76 215.001 76c115.333 0 204.666 -45.5 267.999 -136.5s95 -214.833 95 -371.5c0 -163.333 -36.833 -293.666 -110.5 -390.999s-163.834 -146 -270.501 -146c-60.667 0 -126.334 24 -197.001 72l5 -147v-320h-164zM510.002 116.999
c60 0 114.667 23.666 164 70.999v623c-50.667 45.333 -108 68 -172 68c-66.667 0 -122 -35.5 -166 -106.5s-66 -162.5 -66 -274.5c0 -119.333 21 -212.666 63 -279.999s101 -101 177 -101zM997.002 116.998c70.667 0 127.667 35.5 171 106.5s65 167.167 65 288.5
c0 114.667 -18.667 204.5 -56 269.5s-95 97.5 -173 97.5c-62.667 0 -121 -23.333 -175 -70v-625c50 -44.667 106 -67 168 -67z" />
    <glyph glyph-name="uni0445" unicode="&#x445;" horiz-adv-x="913" 
d="M29 0l325 520.001l-301 475h183l133 -219l98 -166h8c43.333 82 73.333 137.333 90 166l121 219h176l-301 -493l324 -502h-183l-145 231c-58 98 -94 157.667 -108 179h-9c-18 -28.667 -51.333 -88.334 -100 -179.001l-135 -231h-176z" />
    <glyph glyph-name="uni0446" unicode="&#x446;" horiz-adv-x="1134" 
d="M950 137h146v-106l-17 -383h-145v352h-766v995h168v-858h446v858h168v-858z" />
    <glyph glyph-name="uni0447" unicode="&#x447;" horiz-adv-x="1048" 
d="M713 0v397c-66.667 -13.333 -131.667 -20 -195 -20c-130 0 -228.667 27.5 -296 82.5s-101 142.833 -101 263.5v272h168v-272c0 -73.333 20.833 -126.5 62.5 -159.5s108.167 -49.5 199.5 -49.5c51.333 0 105.333 6 162 18v463h168v-995h-168z" />
    <glyph glyph-name="uni0448" unicode="&#x448;" horiz-adv-x="1533" 
d="M168 0v995h168v-858h350v858h162v-858h352v858h166v-995h-1198z" />
    <glyph glyph-name="uni0449" unicode="&#x449;" horiz-adv-x="1550" 
d="M1366 137h145v-106l-16 -383h-145v352h-1182v995h168v-858h350v858h162v-858h352v858h166v-858z" />
    <glyph glyph-name="uni044A" unicode="&#x44a;" horiz-adv-x="1220" 
d="M406 0v858.001h-353v137h520v-366h166c124 0 221 -25.833 291 -77.5s105 -129.834 105 -234.501c0 -106.667 -35 -186.167 -105 -238.5s-167 -78.5 -291 -78.5h-333zM573 135.001h150c83.333 0 145.5 14.833 186.5 44.5s61.5 75.5 61.5 137.5s-20.333 107.667 -61 137
s-103 44 -187 44h-150v-363z" />
    <glyph glyph-name="uni044B" unicode="&#x44b;" horiz-adv-x="1380" 
d="M168 0v995.001h168v-366h141c122.667 0 219.167 -25.833 289.5 -77.5s105.5 -129.834 105.5 -234.501c0 -106.667 -35 -186.167 -105 -238.5s-166.667 -78.5 -290 -78.5h-309zM336 135.001h123c84 0 146.333 14.833 187 44.5s61 75.5 61 137.5s-20.167 107.667 -60.5 137
s-102.833 44 -187.5 44h-123v-363zM1044 0.000976562v995h168v-995h-168z" />
    <glyph glyph-name="uni044C" unicode="&#x44c;" horiz-adv-x="1005" 
d="M168 0v995.001h168v-366h188c123.333 0 220.166 -25.833 290.499 -77.5s105.5 -129.834 105.5 -234.501c0 -106.667 -35.167 -186.167 -105.5 -238.5s-167.166 -78.5 -290.499 -78.5h-356zM336 135.001h170c84 0 146.333 14.833 187 44.5s61 75.5 61 137.5
s-20.167 107.667 -60.5 137s-102.833 44 -187.5 44h-170v-363z" />
    <glyph glyph-name="uni044D" unicode="&#x44d;" horiz-adv-x="933" 
d="M150 799l-79.9961 102.002c85.333 79.333 190.333 119 315 119c63.333 0 122 -10.833 176 -32.5s102 -53.5 144 -95.5s75 -96.833 99 -164.5s36 -144.834 36 -231.501c0 -168 -42.833 -296.833 -128.5 -386.5s-197.834 -134.5 -336.501 -134.5
c-128.667 0 -237.334 42.333 -326.001 127l70 103c69.333 -62.667 149.666 -94 240.999 -94c93.333 0 168.166 29.5 224.499 88.5s87.5 144.833 93.5 257.5h-440v121h436c-12 101.333 -44.5 178.166 -97.5 230.499s-120.167 78.5 -201.5 78.5c-82 0 -157 -29.333 -225 -88z
" />
    <glyph glyph-name="uni044E" unicode="&#x44e;" horiz-adv-x="1511" 
d="M979 115c81.333 0 145.666 34.832 192.999 104.499s71 161.834 71 276.501c0 116 -23.667 209.167 -71 279.5s-111.666 105.5 -192.999 105.5c-80.667 0 -145.834 -35.5 -195.501 -106.5s-74.5 -163.833 -74.5 -278.5c0 -114 24.833 -206 74.5 -276
s114.834 -105 195.501 -105zM336 585.999h216.999c16 134.667 63.667 240.667 143 318s176.333 116 291 116c123.333 0 225.833 -46.833 307.5 -140.5s122.5 -221.5 122.5 -383.5c0 -160 -40.833 -286.833 -122.5 -380.5s-184.167 -140.5 -307.5 -140.5
c-118.667 0 -218.167 41.333 -298.5 124s-126.166 195 -137.499 337h-215v-436h-168v995h168v-409z" />
    <glyph glyph-name="uni044F" unicode="&#x44f;" horiz-adv-x="1052" 
d="M717 516v348h-156c-166.667 0 -250 -56 -250 -168c0 -58 22 -102.5 66 -133.5s105.333 -46.5 184 -46.5h156zM532 995h353.001v-995h-168v393h-185h-2l-274 -393h-190l303 416c-68.667 21.333 -123.834 55.5 -165.501 102.5s-62.5 107.5 -62.5 181.5
c0 70.667 17.5 128.5 52.5 173.5s80.667 76.5 137 94.5s123.5 27 201.5 27z" />
    <glyph glyph-name="uni0451" unicode="&#x451;" horiz-adv-x="1015" 
d="M571 -25c-136.667 0 -250.334 47.167 -341.001 141.5s-136 220.833 -136 379.5c0 78.667 12.667 151.5 38 218.5s58.833 122.5 100.5 166.5s89.167 78.167 142.5 102.5s108.666 36.5 165.999 36.5c125.333 0 222.833 -41.833 292.5 -125.5s104.5 -197.5 104.5 -341.5
c0 -39.333 -2 -71.333 -6 -96h-672c6 -105.333 39 -189.333 99 -252s137.667 -94 233 -94c84.667 0 167.334 25.667 248.001 77l59 -110c-107.333 -68.667 -216.666 -103 -327.999 -103zM258 578l533.002 -0.000976562c0 100 -21.333 176.5 -64 229.5
s-103.334 79.5 -182.001 79.5c-72.667 0 -136.334 -27.667 -191.001 -83s-86.667 -130.666 -96 -225.999zM344.002 1202c-29.333 0 -53.666 10 -72.999 30s-29 44.333 -29 73s9.66699 52.834 29 72.501s43.666 29.5 72.999 29.5c28.667 0 52.5 -9.83301 71.5 -29.5
s28.5 -43.834 28.5 -72.501s-9.66699 -53 -29 -73s-43 -30 -71 -30zM737.002 1202c-28 0 -51.667 10 -71 30s-29 44.333 -29 73s9.5 52.834 28.5 72.501s42.833 29.5 71.5 29.5c29.333 0 53.833 -9.83301 73.5 -29.5s29.5 -43.834 29.5 -72.501s-9.83301 -53 -29.5 -73
s-44.167 -30 -73.5 -30z" />
    <glyph glyph-name=".null" horiz-adv-x="0" 
 />
    <glyph glyph-name="nonmarkingreturn" horiz-adv-x="682" 
 />
    <glyph glyph-name="uni0431.srb" horiz-adv-x="1077" 
d="M532 115c88.667 0 158.669 31.334 210.002 94.001s77 144.667 77 246c0 39.333 -5.16699 75.833 -15.5 109.5s-26.333 64.834 -48 93.501s-44.334 54.167 -68.001 76.5s-52.834 46.5 -87.501 72.5c-108 -26.667 -192.333 -73.334 -253 -140.001
s-91 -148.334 -91 -245.001c0 -89.333 27.5 -162.833 82.5 -220.5s119.5 -86.5 193.5 -86.5zM952.002 1495l35.002 -154.001c-48.667 -26.667 -121 -45.667 -217 -57c-32.667 -4 -76.334 -9 -131.001 -15c-58.667 -6 -100 -10.667 -124 -14s-49.167 -8.83301 -75.5 -16.5
s-43.333 -17.334 -51 -29.001s-11.5 -27.167 -11.5 -46.5c0 -21.333 11.5 -41.5 34.5 -60.5s62.5 -44.167 118.5 -75.5s101.333 -59 136 -83c52 -36.667 94.667 -69.667 128 -99s65.5 -63.833 96.5 -103.5s53.833 -83.167 68.5 -130.5s22 -100 22 -158
c0 -142 -41.333 -257.167 -124 -345.5s-192.334 -132.5 -329.001 -132.5c-76.667 0 -147.5 17.5 -212.5 52.5s-117.833 86.5 -158.5 154.5s-61 146 -61 234c0 230.667 132 387 396 469c-92 63.333 -150.667 105.666 -176 126.999c-69.333 60.667 -104.333 118 -105 172
c0 38.667 7.16699 71.834 21.5 99.501s33.333 49.667 57 66s56 30.333 97 42s82.667 20.667 125 27s95.166 13.5 158.499 21.5c8.66699 0.666992 15.334 1.33398 20.001 2.00098c79.333 6.66699 134.833 13.334 166.5 20.001s63.5 17.667 95.5 33z" />
    <glyph glyph-name="zero.dnom" 
d="M377 -25c-93.333 0 -167.5 37.5 -222.5 112.5s-82.5 179.5 -82.5 313.5c0 132.667 27.5 236.167 82.5 310.5s129.167 111.5 222.5 111.5c92.667 0 166.667 -37.333 222 -112s83 -178 83 -310c0 -134 -27.667 -238.5 -83 -313.5s-129.333 -112.5 -222 -112.5zM377 80
c53.333 0 96 27.501 128 82.501s48 134.5 48 238.5c0 103.333 -15.833 182.166 -47.5 236.499s-74.5 81.5 -128.5 81.5c-54.667 0 -98 -27 -130 -81s-48 -133 -48 -237s16 -183.5 48 -238.5s75.333 -82.5 130 -82.5z" />
    <glyph glyph-name="one.dnom" 
d="M352 0v631h-174v86c78 14 144.333 41.333 199 82h106v-799h-131z" />
    <glyph glyph-name="two.dnom" 
d="M106 0v76l166 152.5c38.667 37 76.5 76.167 113.5 117.5s62.833 77.5 77.5 108.5s22 61.167 22 90.5c0 52 -13.667 93 -41 123s-64.666 45 -111.999 45c-61.333 0 -118.666 -39 -171.999 -117l-78 72c31.333 47.333 70.166 85 116.499 113s96.166 42 149.499 42
c81.333 0 146 -22.333 194 -67s72 -108.334 72 -191.001c0 -36 -5.5 -70.167 -16.5 -102.5s-33.333 -70 -67 -113s-60.167 -75.167 -79.5 -96.5s-58 -61.666 -116 -120.999c-8 -8.66699 -14 -15 -18 -19h338v-113h-549z" />
    <glyph glyph-name="three.dnom" 
d="M369 -25c-62 0 -119.001 14.332 -171.001 42.999s-94 66.334 -126 113.001l88 68c52.667 -79.333 120 -119 202 -119c45.333 0 83.333 12.833 114 38.5s46 60.5 46 104.5c0 46 -21.667 81.167 -65 105.5s-104.333 36.5 -183 36.5v84c67.333 0 120.5 13.333 159.5 40
s58.5 61 58.5 103c0 38 -13.333 68.667 -40 92s-62 35 -106 35c-55.333 0 -109.333 -32 -162 -96l-80 69c76.667 87.333 164.334 131 263.001 131c71.333 0 131.5 -19.5 180.5 -58.5s73.5 -91.167 73.5 -156.5c0 -86 -46.667 -151.333 -140 -196
c48.667 -12.667 89.5 -36.167 122.5 -70.5s49.5 -76.5 49.5 -126.5c0 -72 -27.333 -130 -82 -174s-122 -66 -202 -66z" />
    <glyph glyph-name="four.dnom" 
d="M223 307h228v144l8 223h-8l-103 -166zM688 307v-94h-119v-213h-118v213h-365v68l336 518h147v-492h119z" />
    <glyph glyph-name="five.dnom" 
d="M375 -25c-129.333 0 -230.333 52 -303 156l88 68c54.667 -79.333 123.667 -119 207 -119c47.333 0 86.333 16.667 117 50s46 75.333 46 126c0 54 -15.5 96.833 -46.5 128.5s-71.5 47.5 -121.5 47.5s-100.333 -21.667 -151 -65l-64 47l37 385h437v-115h-328l-23 -195
c50.667 20.667 93.667 31 129 31c74.667 0 137.167 -24 187.5 -72s75.5 -113.333 75.5 -196c0 -81.333 -27.333 -147.833 -82 -199.5s-123 -77.5 -205 -77.5z" />
    <glyph glyph-name="six.dnom" 
d="M399 80c42.667 0 77.667 15.3311 105 45.998s41 70 41 118c0 48.667 -13.5 87.834 -40.5 117.501s-64.833 44.5 -113.5 44.5c-61.333 0 -119.333 -29.667 -174 -89c6 -77.333 25.167 -136.166 57.5 -176.499s73.833 -60.5 124.5 -60.5zM635 761.998l-52.998 -92.001
c-47.333 32.667 -93.333 49 -138 49c-62 0 -113.667 -25.333 -155 -76s-65.333 -125 -72 -223c58.667 54.667 125.667 82 201 82c78.667 0 140 -23.333 184 -70s66 -108.667 66 -186s-25.5 -141.833 -76.5 -193.5s-114.5 -77.5 -190.5 -77.5
c-94.667 0 -169.834 36 -225.501 108s-83.5 170.667 -83.5 296c0 144.667 32.167 254.834 96.5 330.501s148.166 113.5 251.499 113.5c74.667 0 139.667 -20.333 195 -61z" />
    <glyph glyph-name="seven.dnom" 
d="M268 0c8 138.667 30.5 259.834 67.5 363.501s96.5 211.167 178.5 322.5h-412v113h560v-74c-92 -116.667 -155.5 -228.834 -190.5 -336.501s-56.833 -237.167 -65.5 -388.5h-138z" />
    <glyph glyph-name="eight.dnom" 
d="M373 -25c-82 0 -149.332 21.833 -201.999 65.5s-79 96.5 -79 158.5c0 46.667 14.5 89.167 43.5 127.5s65.167 70.166 108.5 95.499v8c-79.333 50.667 -119 111.334 -119 182.001c0 62 23.833 112.667 71.5 152s106.5 59 176.5 59c73.333 0 134.333 -19.333 183 -58
s73 -89.667 73 -153c0 -72.667 -41 -136.667 -123 -192v-8c99.333 -50.667 149 -119.667 149 -207c0 -64.667 -26.833 -119.167 -80.5 -163.5s-120.834 -66.5 -201.501 -66.5zM420.001 457c57.333 44 86.001 94.333 86.001 151c0 34 -12.667 61.667 -38 83s-57 32 -95 32
c-35.333 0 -65.333 -10.667 -90 -32s-37 -48.333 -37 -81c0 -38 15.167 -68.5 45.5 -91.5s73.166 -43.5 128.499 -61.5zM373.002 72c44 0 81.498 13.333 112.498 40s46.5 59 46.5 97c0 12 -1.66699 23.167 -5 33.5s-7.16602 19.5 -11.499 27.5s-11.166 15.833 -20.499 23.5
s-17.5 14 -24.5 19s-17.667 10.833 -32 17.5l-34 15.5c-8.33301 3.66699 -21.333 9 -39 16l-39.5 15.5c-74 -44 -111 -99.333 -111 -166c0 -37.333 15 -69.833 45 -97.5s67.667 -41.5 113 -41.5z" />
    <glyph glyph-name="nine.dnom" 
d="M354 393c63.333 0 122 29.333 176 88c-6 77.333 -25.333 136.333 -58 177s-74.667 61 -126 61c-42 0 -76.667 -15.333 -104 -46s-41 -70 -41 -118s13.5 -87 40.5 -117s64.5 -45 112.5 -45zM111 37l55 91.999c47.333 -32.667 93 -49 137 -49
c62.667 0 114.667 25.5 156 76.5s65 125.833 71 224.5c-58 -56 -124.667 -84 -200 -84c-78.667 0 -140 23.333 -184 70s-66 108.667 -66 186c0 76.667 25.167 140.834 75.5 192.501s113.166 77.5 188.499 77.5c95.333 0 171 -35.833 227 -107.5s84 -170.167 84 -295.5
c0 -144.667 -32.167 -255 -96.5 -331s-148.166 -114 -251.499 -114c-72 0 -137.333 20.667 -196 62z" />
    <glyph glyph-name="zero.numr" 
d="M377 520c-93.333 0 -167.5 37.5 -222.5 112.5s-82.5 179.5 -82.5 313.5c0 132.667 27.5 236.167 82.5 310.5s129.167 111.5 222.5 111.5c92.667 0 166.667 -37.333 222 -112s83 -178 83 -310c0 -134 -27.667 -238.5 -83 -313.5s-129.333 -112.5 -222 -112.5zM377 625
c53.333 0 96 27.501 128 82.501s48 134.5 48 238.5c0 103.333 -15.833 182.166 -47.5 236.499s-74.5 81.5 -128.5 81.5c-54.667 0 -98 -27 -130 -81s-48 -133 -48 -237s16 -183.5 48 -238.5s75.333 -82.5 130 -82.5z" />
    <glyph glyph-name="one.numr" 
d="M352 545l0.000976562 631h-174v86c79.333 14 145.666 41 198.999 81h106v-798h-131z" />
    <glyph glyph-name="two.numr" 
d="M106 545l-0.00195312 76.0029l166 152.5c38.667 37 76.5 76.167 113.5 117.5s62.833 77.5 77.5 108.5s22 61.167 22 90.5c0 52 -13.667 92.833 -41 122.5s-64.666 44.5 -111.999 44.5c-62 0 -119.333 -38.667 -172 -116l-78 71c31.333 47.333 70.333 85.166 117 113.499
s96.334 42.5 149.001 42.5c81.333 0 146 -22.333 194 -67s72 -108.334 72 -191.001c0 -21.333 -3 -43.333 -9 -66s-12.167 -42.334 -18.5 -59.001s-18.833 -38.167 -37.5 -64.5l-42 -59c-9.33301 -13 -28.833 -35.333 -58.5 -67l-60 -64l-71.5 -73.5h338v-112h-549z" />
    <glyph glyph-name="three.numr" 
d="M369 520c-62 0 -119.001 14.334 -171.001 43.001s-94 66.334 -126 113.001l88 67c52 -78.667 119.333 -118 202 -118c45.333 0 83.333 12.833 114 38.5s46 60.5 46 104.5c0 45.333 -21.667 80.166 -65 104.499s-104.333 36.5 -183 36.5v84
c67.333 0 120.5 13.5 159.5 40.5s58.5 61.5 58.5 103.5c0 38 -13.333 68.667 -40 92s-62 35 -106 35c-55.333 0 -109.333 -32.333 -162 -97l-80 70c76.667 87.333 164.334 131 263.001 131c71.333 0 131.5 -19.5 180.5 -58.5s73.5 -91.167 73.5 -156.5
c0 -86.667 -46.667 -152.334 -140 -197.001c48.667 -12.667 89.5 -36 122.5 -70s49.5 -76 49.5 -126c0 -72 -27.333 -130 -82 -174s-122 -66 -202 -66z" />
    <glyph glyph-name="four.numr" 
d="M223 852h228v143l8 224h-8l-103 -166zM688 852v-94h-119v-213h-118v213h-365v67l336 518h147v-491h119z" />
    <glyph glyph-name="five.numr" 
d="M375 520c-129.333 0 -230.334 52 -303.001 156l88 67c54 -78.667 123 -118 207 -118c47.333 0 86.333 16.667 117 50s46 75.333 46 126c0 54 -15.5 96.833 -46.5 128.5s-71.5 47.5 -121.5 47.5c-49.333 0 -99.666 -22 -150.999 -66l-64 47l37 385h437v-114h-328l-23 -195
c50.667 20.667 93.667 31 129 31c74.667 0 137.167 -24 187.5 -72s75.5 -113.333 75.5 -196c0 -81.333 -27.333 -147.833 -82 -199.5s-123 -77.5 -205 -77.5z" />
    <glyph glyph-name="six.numr" 
d="M399 625c42.667 0 77.667 15.165 105 45.498s41 69.5 41 117.5c0 48.667 -13.5 87.834 -40.5 117.501s-64.833 44.5 -113.5 44.5c-62 0 -120 -29.333 -174 -88c6 -77.333 25.167 -136.166 57.5 -176.499s73.833 -60.5 124.5 -60.5zM635 1307l-52.998 -93.001
c-48 33.333 -94 50 -138 50c-62 0 -113.667 -25.333 -155 -76s-65.333 -125 -72 -223c58.667 54.667 125.667 82 201 82c78.667 0 140 -23.333 184 -70s66 -108.667 66 -186s-25.5 -141.833 -76.5 -193.5s-114.5 -77.5 -190.5 -77.5c-94.667 0 -169.834 36 -225.501 108
s-83.5 170.667 -83.5 296c0 144.667 32.167 254.834 96.5 330.501s148.166 113.5 251.499 113.5c74.667 0 139.667 -20.333 195 -61z" />
    <glyph glyph-name="seven.numr" 
d="M268 545c8 138.667 30.5 259.834 67.5 363.501s96.5 211.167 178.5 322.5h-412v112h560v-73c-92 -116.667 -155.5 -228.834 -190.5 -336.501s-56.833 -237.167 -65.5 -388.5h-138z" />
    <glyph glyph-name="eight.numr" 
d="M373 520c-82 0 -149.332 21.666 -201.999 64.999s-79 96 -79 158c0 46.667 14.5 89.334 43.5 128.001s65.167 70.667 108.5 96v8c-38.667 24.667 -68.167 51.334 -88.5 80.001s-30.5 62.667 -30.5 102c0 62 23.833 112.667 71.5 152s106.5 59 176.5 59
c73.333 0 134.333 -19.333 183 -58s73 -89.667 73 -153c0 -72.667 -41 -136.667 -123 -192v-9c99.333 -50.667 149 -119.334 149 -206.001c0 -64.667 -26.833 -119.167 -80.5 -163.5s-120.834 -66.5 -201.501 -66.5zM420.001 1001c57.333 44 86.001 94.667 86.001 152
c0 34 -12.667 61.667 -38 83s-57 32 -95 32c-35.333 0 -65.333 -10.667 -90 -32s-37 -48.333 -37 -81c0 -38 15.167 -68.667 45.5 -92s73.166 -44 128.499 -62zM373.002 615.999c44 0 81.498 13.5 112.498 40.5s46.5 59.5 46.5 97.5c0 12 -1.66699 23.167 -5 33.5
s-7.16602 19.5 -11.499 27.5s-11.166 15.833 -20.499 23.5s-17.5 14 -24.5 19s-17.667 10.833 -32 17.5l-34 15.5c-8.33301 3.66699 -21.333 9 -39 16l-39.5 15.5c-74 -44 -111 -99.333 -111 -166c0 -37.333 15 -70 45 -98s67.667 -42 113 -42z" />
    <glyph glyph-name="nine.numr" 
d="M354 938c63.333 0 122 29.333 176 88c-6 77.333 -25.333 136.333 -58 177s-74.667 61 -126 61c-42 0 -76.667 -15.333 -104 -46s-41 -70 -41 -118s13.5 -87 40.5 -117s64.5 -45 112.5 -45zM111 582l55 91.999c47.333 -32.667 93 -49 137 -49
c62.667 0 114.667 25.5 156 76.5s65 125.833 71 224.5c-58 -56 -124.667 -84 -200 -84c-78.667 0 -140 23.333 -184 70s-66 108.667 -66 186c0 76.667 25.167 140.834 75.5 192.501s113.166 77.5 188.499 77.5c95.333 0 171 -35.833 227 -107.5s84 -170.167 84 -295.5
c0 -144.667 -32.167 -255 -96.5 -331s-148.166 -114 -251.499 -114c-72 0 -137.333 20.667 -196 62z" />
    </font>
</defs>
</svg>
