<?xml version="1.0" standalone="no"?>
<!DOCTYPE svg PUBLIC "-//W3C//DTD SVG 1.1//EN" "http://www.w3.org/Graphics/SVG/1.1/DTD/svg11.dtd" >
<svg>
<metadata>
Created by FontForge 20090914 at Mon Feb 14 10:01:28 2022
 By www-data
Copyright 2010, 2012, 2014 Adobe Systems Incorporated (http://www.adobe.com/), with Reserved Font Name 'Source'.
</metadata>
<defs>
<font id="SourceSansPro-Semibold" horiz-adv-x="761" >
  <font-face 
    font-family="Source Sans Pro Semibold"
    font-weight="600"
    font-stretch="normal"
    units-per-em="2048"
    panose-1="2 11 6 3 3 4 3 2 2 4"
    ascent="1536"
    descent="-512"
    x-height="1006"
    cap-height="1339"
    bbox="-9.99805 -414 1804 1724"
    underline-thickness="102"
    underline-position="-205"
    unicode-range="U+0030-U+0451"
  />
<missing-glyph horiz-adv-x="1376" 
 />
    <glyph glyph-name=".notdef" horiz-adv-x="1376" 
 />
    <glyph glyph-name="zero" unicode="0" horiz-adv-x="1050" 
d="M524 -25c-136.667 0 -244.5 59.333 -323.5 178s-118.5 286.667 -118.5 504c0 216 39.333 381.667 118 497s186.667 173 324 173s245.5 -57.833 324.5 -173.5s118.5 -281.167 118.5 -496.5c0 -217.333 -39.667 -385.333 -119 -504s-187.333 -178 -324 -178zM524 160
c144.667 0 216.999 165.667 216.999 497c0 90 -5.16699 167 -15.5 231s-25.5 114.333 -45.5 151s-42.667 63.167 -68 79.5s-54.666 24.5 -87.999 24.5c-144.667 0 -217 -162 -217 -486c0 -331.333 72.333 -497 217 -497z" />
    <glyph glyph-name="one" unicode="1" horiz-adv-x="1050" 
d="M152 0v193h290v856h-239v147c120 23.333 220.333 59 301 107h176v-1110h256v-193h-784z" />
    <glyph glyph-name="two" unicode="2" horiz-adv-x="1050" 
d="M78 0l0.00195312 137l171 167l141.5 144c51.667 54 91.667 99.333 120 136s56 75.667 83 117s46.167 79.166 57.5 113.499s17 67.833 17 100.5c0 69.333 -18.667 124.333 -56 165s-90.333 61 -159 61c-82 0 -166.667 -48.667 -254 -146l-131 131
c63.333 68 127.166 118.5 191.499 151.5s138.833 49.5 223.5 49.5c124.667 0 224.5 -36.167 299.5 -108.5s112.5 -169.166 112.5 -290.499c0 -37.333 -5.33301 -75.5 -16 -114.5s-27.5 -79.5 -50.5 -121.5s-47 -81.5 -72 -118.5s-57.833 -79.333 -98.5 -127l-110.5 -125.5
l-125.5 -135c113.333 10 185.666 15 216.999 15h319v-201h-880z" />
    <glyph glyph-name="three" unicode="3" horiz-adv-x="1050" 
d="M492 -25c-184 0 -331.668 61.667 -443.001 185l113 151c92.667 -95.333 195.667 -143 309 -143c71.333 0 129.166 17.667 173.499 53s66.5 83.333 66.5 144c0 35.333 -6.16699 66 -18.5 92s-32.666 49 -60.999 69s-67.833 35 -118.5 45s-112.334 15 -185.001 15v172
c226.667 0 340 69.667 340 209c0 54 -17.167 96.5 -51.5 127.5s-81.5 46.5 -141.5 46.5c-86 0 -173.333 -41 -262 -123l-121 145c124 109.333 254.333 164 391 164c127.333 0 229.5 -30.167 306.5 -90.5s115.5 -144.833 115.5 -253.5c0 -140 -75.667 -239.667 -227 -299v-8
c80.667 -21.333 145.834 -60 195.501 -116s74.5 -125.333 74.5 -208c0 -115.333 -43.667 -207 -131 -275s-195.666 -102 -324.999 -102z" />
    <glyph glyph-name="four" unicode="4" horiz-adv-x="1050" 
d="M270 518h342v295c0 40.667 3.66699 130.667 11 270h-9l-106 -202zM997 518v-182h-163v-336h-222v336h-575v160l516 807h281v-785h163z" />
    <glyph glyph-name="five" unicode="5" horiz-adv-x="1050" 
d="M494 -25c-176 0 -324.331 60.3291 -444.998 180.996l109 151c98 -92.667 199.667 -139 305 -139c74 0 134.5 22.333 181.5 67s70.5 105.667 70.5 183c0 76.667 -21.833 136.5 -65.5 179.5s-101.834 64.5 -174.501 64.5c-40 0 -74.333 -5.5 -103 -16.5
s-64 -30.167 -106 -57.5l-112 71l39 644h696v-199h-492l-26 -316c58.667 28.667 116 43 172 43c56.667 0 109.334 -8.16699 158.001 -24.5s92 -40.666 130 -72.999s67.667 -75 89 -128s32 -113.5 32 -181.5c0 -69.333 -12.5 -132.666 -37.5 -189.999
s-58.833 -104.666 -101.5 -141.999s-91.334 -66.166 -146.001 -86.499s-112.334 -30.5 -173.001 -30.5z" />
    <glyph glyph-name="six" unicode="6" horiz-adv-x="1050" 
d="M559 156c56.667 0 103.333 21.833 140 65.5s55 104.167 55 181.5c0 76 -17.833 133.667 -53.5 173s-86.167 59 -151.5 59c-88 0 -166 -50 -234 -150c12 -112 39.167 -194.833 81.5 -248.5s96.5 -80.5 162.5 -80.5zM949.999 1180l-127 -144.001
c-24 29.333 -55 53.166 -93 71.499s-76 27.5 -114 27.5c-34 0 -65.333 -5.16699 -94 -15.5s-55.834 -27.333 -81.501 -51s-47.834 -53.667 -66.501 -90s-33.667 -82.166 -45 -137.499s-18 -118 -20 -188c37.333 47.333 81.833 84.833 133.5 112.5s101.5 41.5 149.5 41.5
c116.667 0 209.334 -34.333 278.001 -103s103 -169 103 -301c0 -126.667 -39.667 -229.667 -119 -309s-176.333 -119 -291 -119c-52 0 -101.167 8 -147.5 24s-89.5 40.833 -129.5 74.5s-74.5 75.167 -103.5 124.5s-51.667 109.333 -68 180s-24.5 148.667 -24.5 234
c0 98 9.33301 187.333 28 268s43.834 148.334 75.501 203.001s69.5 100.5 113.5 137.5s90.5 64 139.5 81s100.833 25.5 155.5 25.5c138.667 0 254.667 -49 348 -147z" />
    <glyph glyph-name="seven" unicode="7" horiz-adv-x="1050" 
d="M344 0c12 235.333 44.499 435 97.499 599s141.5 332.333 265.5 505h-617v199h875v-144c-60.667 -75.333 -112.167 -148.333 -154.5 -219s-77.166 -139 -104.499 -205s-49.333 -138.833 -66 -218.5s-29 -158.167 -37 -235.5s-14.333 -171 -19 -281h-240z" />
    <glyph glyph-name="eight" unicode="8" horiz-adv-x="1050" 
d="M526 -25c-128 0 -233.666 33.667 -316.999 101s-125 153.333 -125 258c0 138.667 78.333 250 235 334v8c-120 86.667 -180 188.334 -180 305.001c0 104 37 187.667 111 251s168 95 282 95c116 0 208.833 -32.167 278.5 -96.5s104.5 -149.5 104.5 -255.5
c0 -59.333 -17 -115.333 -51 -168s-75 -96.334 -123 -131.001v-8c70 -39.333 125.167 -85.5 165.5 -138.5s60.5 -119.5 60.5 -199.5c0 -102 -40.833 -186.667 -122.5 -254s-187.834 -101 -318.501 -101zM612.001 735c72.667 72.667 108.999 147.999 108.999 225.999
c0 58.667 -17.333 106.334 -52 143.001s-81.667 55 -141 55c-51.333 0 -93.833 -16 -127.5 -48s-50.5 -75.333 -50.5 -130c0 -31.333 6.33301 -59.5 19 -84.5s32.334 -47.333 59.001 -67s53.5 -36.167 80.5 -49.5s61.5 -28.333 103.5 -45zM530 142.999
c63.333 0 114.999 17.6689 154.999 53.002s60 82.666 60 141.999c0 26.667 -5.16699 51 -15.5 73s-23.666 40.833 -39.999 56.5s-37.833 31.167 -64.5 46.5s-53.334 28.833 -80.001 40.5l-95 40.5c-8 3.33301 -14 5.66602 -18 6.99902
c-43.333 -31.333 -77.666 -67.833 -102.999 -109.5s-38 -86.5 -38 -134.5c0 -63.333 22.833 -115 68.5 -155s102.5 -60 170.5 -60z" />
    <glyph glyph-name="nine" unicode="9" horiz-adv-x="1050" 
d="M500 668c40 0 80.333 12.333 121 37s78 62.667 112 114c-12 110.667 -39.5 193 -82.5 247s-97.5 81 -163.5 81c-55.333 0 -101.5 -22 -138.5 -66s-55.5 -104 -55.5 -180s18 -133.833 54 -173.5s87 -59.5 153 -59.5zM96 123l127 142.999
c25.333 -29.333 56.666 -53 93.999 -71s75.666 -27 114.999 -27c42.667 0 81.334 8.33301 116.001 25s66.167 43.167 94.5 79.5s50.833 86.333 67.5 150s26.334 139.167 29.001 226.5c-37.333 -46 -82 -82.667 -134 -110s-102 -41 -150 -41
c-115.333 0 -207.333 34.167 -276 102.5s-103 168.5 -103 300.5c0 126.667 39.5 229.334 118.5 308.001s175.833 118 290.5 118c64.667 0 125 -12.833 181 -38.5s105.833 -63.667 149.5 -114s78 -116.833 103 -199.5s37.5 -177 37.5 -283c0 -122 -14 -230.167 -42 -324.5
s-66 -169.333 -114 -225s-102 -97.5 -162 -125.5s-124.667 -42 -194 -42c-138 0 -254 49.333 -348 148z" />
    <glyph glyph-name="uni0401" unicode="&#x401;" horiz-adv-x="1101" 
d="M367 1450c-36 0 -65.167 11.333 -87.5 34s-33.5 51.667 -33.5 87c0 36 11.167 65.5 33.5 88.5s51.5 34.5 87.5 34.5s65.333 -11.5 88 -34.5s34 -52.5 34 -88.5c0 -35.333 -11.333 -64.333 -34 -87s-52 -34 -88 -34zM805 1450c-36 0 -65.5 11.333 -88.5 34
s-34.5 51.667 -34.5 87c0 36 11.5 65.5 34.5 88.5s52.5 34.5 88.5 34.5s65.167 -11.5 87.5 -34.5s33.5 -52.5 33.5 -88.5c0 -35.333 -11.167 -64.333 -33.5 -87s-51.5 -34 -87.5 -34zM170 0v1339h807v-200h-569v-342h481v-201h-481v-395h589v-201h-827z" />
    <glyph glyph-name="uni0410" unicode="&#x410;" horiz-adv-x="1142" 
d="M397 549h342l-47 164c-19.333 62.667 -59.666 210 -120.999 442h-8c-44.667 -180.667 -84.334 -328 -119.001 -442zM897 0l-104 362h-451l-104 -362h-242l436 1339h279l436 -1339h-250z" />
    <glyph glyph-name="uni0411" unicode="&#x411;" horiz-adv-x="1208" 
d="M170 0l-0.000976562 1339h872v-200h-634v-342h219c74 0 140.5 -6.83301 199.5 -20.5s111.667 -35 158 -64s82.166 -68.667 107.499 -119s38 -109.5 38 -177.5c0 -71.333 -12.167 -134 -36.5 -188s-58.666 -97.5 -102.999 -130.5s-96.166 -57.5 -155.499 -73.5
s-126 -24 -200 -24h-465zM407.999 184l198 0.000976562c98 0 171 18.667 219 56s72 94.666 72 171.999c0 73.333 -24.167 126 -72.5 158s-122.5 48 -222.5 48h-194v-434z" />
    <glyph glyph-name="uni0412" unicode="&#x412;" horiz-adv-x="1222" 
d="M170 0v1339h428c319.333 0 479 -109.667 479 -329c0 -65.333 -16.667 -125.166 -50 -179.499s-78.666 -91.5 -135.999 -111.5v-8c77.333 -17.333 139.333 -53 186 -107s70 -124.333 70 -211s-22.667 -160 -68 -220s-105.833 -103.833 -181.5 -131.5
s-163.834 -41.5 -264.501 -41.5h-463zM408 785.999h170c90 0 156.833 16.5 200.5 49.5s65.5 79.5 65.5 139.5c0 64 -21.333 110 -64 138s-108.667 42 -198 42h-174v-369zM408 183.999h200c100 0 176.167 18.5 228.5 55.5s78.5 92.5 78.5 166.5
c0 69.333 -25.667 120.333 -77 153s-128 49 -230 49h-200v-424z" />
    <glyph glyph-name="uni0413" unicode="&#x413;" horiz-adv-x="1044" 
d="M170 0v1339h809v-200h-571v-1139h-238z" />
    <glyph glyph-name="uni0414" unicode="&#x414;" horiz-adv-x="1339" 
d="M905 1139h-315l-40.5 -240c-17 -103.333 -32.167 -190 -45.5 -260c-36 -194.667 -84 -340.667 -144 -438h545v938zM1143 201h156.999v-148l-22 -438h-211v385h-795v-385h-211l-22 438v148h61c70.667 24 134.334 181 191.001 471c22.667 120 61 342.333 115 667h737v-1138
z" />
    <glyph glyph-name="uni0415" unicode="&#x415;" horiz-adv-x="1101" 
d="M170 0v1339h807v-200h-569v-342h481v-201h-481v-395h589v-201h-827z" />
    <glyph glyph-name="uni0416" unicode="&#x416;" horiz-adv-x="1714" 
d="M1309 711l397 -711h-258l-313 602h-164v-602h-228v602h-163l-314 -602h-258l398 711l-127 284c-26.667 57.333 -52.167 95.666 -76.5 114.999s-53.5 29 -87.5 29c-20.667 0 -38.667 -3 -54 -9l-38 218c22 10.667 52.667 16 92 16c72.667 0 134 -17.667 184 -53
s97.667 -99.666 143 -192.999l152 -323h149v544h228v-544h149l150 323c46 93.333 94.167 157.666 144.5 192.999s111.833 53 184.5 53c40 0 71 -5.33301 93 -16l-41 -218c-13.333 6 -31.333 9 -54 9c-32.667 0 -61 -9.66699 -85 -29s-49.333 -57.666 -76 -114.999z" />
    <glyph glyph-name="uni0417" unicode="&#x417;" horiz-adv-x="1144" 
d="M565 -25c-193.333 0 -355.669 63.667 -487.002 191l129 162c54.667 -51.333 110.334 -88.5 167.001 -111.5s119.667 -34.5 189 -34.5c80.667 0 146.667 19.5 198 58.5s77 93.167 77 162.5c0 136.667 -100.333 205 -301 205h-166v178h125c96 0 166 16 210 48
s66 79.667 66 143c0 59.333 -20.667 104.166 -62 134.499s-95.666 45.5 -162.999 45.5c-104 0 -202.333 -37.667 -295 -113l-121 158c54 50.667 117.667 90.334 191 119.001s150.333 43 231 43c140.667 0 251 -31.333 331 -94s120 -148.667 120 -258
c0 -68.667 -16 -129 -48 -181s-77.667 -90 -137 -114v-8c74 -17.333 134.5 -54.5 181.5 -111.5s70.5 -127.167 70.5 -210.5c0 -128.667 -47.667 -229.5 -143 -302.5s-216.333 -109.5 -363 -109.5z" />
    <glyph glyph-name="uni0418" unicode="&#x418;" horiz-adv-x="1363" 
d="M170 0l-0.000976562 1339h236v-581c0 -35.333 -1.16699 -75.5 -3.5 -120.5s-4.66602 -80.833 -6.99902 -107.5l-11.5 -126c-5.33301 -57.333 -8.33301 -91.666 -9 -102.999h8l139 285l420 753h252v-1339h-236v586c0 44.667 1.66699 92.667 5 144s8 108.166 14 170.499
s10 108.166 12 137.499h-8l-137 -282l-422 -756h-252z" />
    <glyph glyph-name="uni0419" unicode="&#x419;" horiz-adv-x="1363" 
d="M170 0l-0.000976562 1339h236v-581c0 -35.333 -1.16699 -75.5 -3.5 -120.5s-4.66602 -80.833 -6.99902 -107.5l-11.5 -126c-5.33301 -57.333 -8.33301 -91.666 -9 -102.999h8l139 285l420 753h252v-1339h-236v586c0 44.667 1.66699 92.667 5 144s8 108.166 14 170.499
s10 108.166 12 137.499h-8l-137 -282l-422 -756h-252zM689.999 1448c-215.333 0 -328 92 -338 276h203c4.66699 -102 49.667 -153 135 -153s130.333 51 135 153h203c-10 -184 -122.667 -276 -338 -276z" />
    <glyph glyph-name="uni041A" unicode="&#x41a;" horiz-adv-x="1230" 
d="M784 715l446.998 -715h-252l-383 602h-188v-602h-238v1339h238v-544h190l180 323c52 94 102 158.5 150 193.5s107.333 52.5 178 52.5c39.333 0 70 -5.33301 92 -16l-39 -218c-15.333 6 -33 9 -53 9c-31.333 0 -58.166 -9.5 -80.499 -28.5s-50.166 -57.5 -83.499 -115.5z
" />
    <glyph glyph-name="uni041B" unicode="&#x41b;" horiz-adv-x="1318" 
d="M125 -25c-54.667 0 -99.665 6.33789 -134.998 19.0049l45 215c24 -5.33301 43 -8 57 -8c19.333 0 35.666 3.66699 48.999 11s27.666 22.166 42.999 44.499s30.333 56.666 45 102.999s29.667 106.166 45 179.499c34.667 171.333 84 438 148 800h727v-1339h-238v1139h-305
l-47.5 -268.5l-64.5 -356.5c-20.667 -107.333 -42.5 -195.833 -65.5 -265.5s-49.667 -124.834 -80 -165.501s-62.833 -68.834 -97.5 -84.501s-76.667 -23.5 -126 -23.5z" />
    <glyph glyph-name="uni041C" unicode="&#x41c;" horiz-adv-x="1525" 
d="M170 0l0.00195312 1339h268l238 -655l49 -148.5l37 -113.5h8l39.5 125l44.5 137l231 655h271v-1339h-219v612c0 78.667 10 220.667 30 426h-8l-108 -311l-220 -602h-141l-221 602l-107 311h-8c1.33301 -18.667 5.16602 -61 11.499 -127s11.166 -123 14.499 -171
s5 -90.667 5 -128v-612h-215z" />
    <glyph glyph-name="uni041D" unicode="&#x41d;" horiz-adv-x="1357" 
d="M170 0v1339h238v-538h542v538h238v-1339h-238v594h-542v-594h-238z" />
    <glyph glyph-name="uni041E" unicode="&#x41e;" horiz-adv-x="1380" 
d="M690 -25c-176 0 -318.333 63.167 -427 189.5s-163 296.833 -163 511.5c0 212.667 54.167 380.5 162.5 503.5s250.833 184.5 427.5 184.5c177.333 0 320.333 -61.333 429 -184s163 -290.667 163 -504c0 -214.667 -54.5 -385.167 -163.5 -511.5
s-251.833 -189.5 -428.5 -189.5zM690 182c105.333 0 189.333 44.667 252 134s94 209.333 94 360c0 148.667 -31.167 266 -93.5 352s-146.5 129 -252.5 129s-190.167 -43 -252.5 -129s-93.5 -203.333 -93.5 -352c0 -150.667 31.333 -270.667 94 -360s146.667 -134 252 -134z
" />
    <glyph glyph-name="uni041F" unicode="&#x41f;" horiz-adv-x="1339" 
d="M170 0v1339h999v-1339h-237v1139h-524v-1139h-238z" />
    <glyph glyph-name="uni0420" unicode="&#x420;" horiz-adv-x="1191" 
d="M170 0l0.00195312 1339h422c345.333 0 518 -137.667 518 -413c0 -58 -8.5 -111 -25.5 -159s-40.667 -88.833 -71 -122.5s-66.833 -62 -109.5 -85s-89.334 -40 -140.001 -51s-105.334 -16.5 -164.001 -16.5h-192v-492h-238zM408.002 682h174c196.667 0 295 81.333 295 244
c0 81.333 -24.833 138.833 -74.5 172.5s-126.167 50.5 -229.5 50.5h-165v-467z" />
    <glyph glyph-name="uni0421" unicode="&#x421;" horiz-adv-x="1179" 
d="M705 -25c-84.667 0 -163.669 15.3311 -237.002 45.998s-137.333 74.667 -192 132s-97.667 130 -129 218s-47 186.333 -47 295c0 106.667 16 204.334 48 293.001s75.833 162.334 131.5 221.001s120.667 104 195 136s153.833 48 238.5 48c78.667 0 151.334 -16 218.001 -48
s123 -72.667 169 -122l-127 -154c-78 78 -162.667 117 -254 117c-111.333 0 -201.666 -43.667 -270.999 -131s-104 -205.333 -104 -354c0 -152 33.167 -271.667 99.5 -359s156.166 -131 269.499 -131c106 0 201.333 45.667 286 137l127 -149
c-113.333 -130 -253.666 -195 -420.999 -195z" />
    <glyph glyph-name="uni0422" unicode="&#x422;" horiz-adv-x="1118" 
d="M440 0v1139h-387v200h1012v-200h-387v-1139h-238z" />
    <glyph glyph-name="uni0423" unicode="&#x423;" horiz-adv-x="1095" 
d="M301 -25c-60 0 -110.332 8.33301 -150.999 25l45 207c26.667 -9.33301 57.334 -14 92.001 -14c37.333 0 68 6.5 92 19.5s43.667 34.167 59 63.5l25 56l-457 1007h252l203 -491l106 -293h8l101 293l184 491h240l-426 -1065
c-38.667 -97.333 -87.834 -171.5 -147.501 -222.5s-134.834 -76.5 -225.501 -76.5z" />
    <glyph glyph-name="uni0424" unicode="&#x424;" horiz-adv-x="1531" 
d="M868 1004v-666c110.667 6 196 37.667 256 95s90 138.333 90 243c0 103.333 -29.833 182.5 -89.5 237.5s-145.167 85.167 -256.5 90.5zM664 338v666c-111.333 -5.33301 -197 -35.5 -257 -90.5s-90 -134.167 -90 -237.5c0 -104 30.167 -184.833 90.5 -242.5
s145.833 -89.5 256.5 -95.5zM868 1364l-0.00195312 -184c180 -7.33301 320 -53.833 420 -139.5s150 -207.167 150 -364.5c0 -158.667 -50.167 -282.167 -150.5 -370.5s-240.166 -136.166 -419.499 -143.499v-187h-204v187
c-179.333 7.33301 -319.166 55.166 -419.499 143.499s-150.5 211.833 -150.5 370.5c0 157.333 50 278.833 150 364.5s240 132.167 420 139.5v184h204z" />
    <glyph glyph-name="uni0425" unicode="&#x425;" horiz-adv-x="1107" 
d="M27 0l381 690l-357 649h264l148 -297c12 -22 29.167 -55.833 51.5 -101.5l50.5 -102.5h8c36.667 88 67 156 91 204l141 297h252l-357 -659l381 -680h-264l-164 315l-52 105l-56 115h-8c-30 -70.667 -63 -144 -99 -220l-159 -315h-252z" />
    <glyph glyph-name="uni0426" unicode="&#x426;" horiz-adv-x="1343" 
d="M1147 201h158v-148l-23 -438h-211v385h-901v1339h238v-1138h501v1138h238v-1138z" />
    <glyph glyph-name="uni0427" unicode="&#x427;" horiz-adv-x="1257" 
d="M850 0l0.000976562 569c-84 -10.667 -158.333 -16 -223 -16c-162 0 -285.167 36.167 -369.5 108.5s-126.5 190.5 -126.5 354.5v323h231v-323c0 -98.667 23.333 -168.5 70 -209.5s119.667 -61.5 219 -61.5c77.333 0 143.666 5.66699 198.999 17v577h237v-1339h-237z" />
    <glyph glyph-name="uni0428" unicode="&#x428;" horiz-adv-x="1818" 
d="M170 0v1339h233v-1138h392v1138h229v-1138h391v1138h234v-1339h-1479z" />
    <glyph glyph-name="uni0429" unicode="&#x429;" horiz-adv-x="1843" 
d="M1649 201h155v-148l-22 -438h-209v385h-1403v1339h233v-1138h392v1138h229v-1138h391v1138h234v-1138z" />
    <glyph glyph-name="uni042A" unicode="&#x42a;" horiz-adv-x="1484" 
d="M465 0v1139h-412v200h649v-518h183c58.667 0 113.5 -4.83301 164.5 -14.5s98.333 -24.834 142 -45.501s81 -46.167 112 -76.5s55.333 -67.5 73 -111.5s26.5 -93 26.5 -147c0 -145.333 -45.5 -252.666 -136.5 -321.999s-214.167 -104 -369.5 -104h-432zM702 190h175
c98 0 171.167 18.5 219.5 55.5s72.5 95.833 72.5 176.5c0 139.333 -101.667 209 -305 209h-162v-441z" />
    <glyph glyph-name="uni042B" unicode="&#x42b;" horiz-adv-x="1691" 
d="M170 0v1339h238v-518h170c157.333 0 281.5 -32.167 372.5 -96.5s136.5 -163.833 136.5 -298.5c0 -74.667 -12.5 -139.667 -37.5 -195s-60.667 -99.666 -107 -132.999s-100 -58 -161 -74s-129.833 -24 -206.5 -24h-405zM408 189.999h149c198 0 297 77.333 297 232
c0 71.333 -24.833 124 -74.5 158s-125.167 51 -226.5 51h-145v-441zM1284 -0.000976562v1339h238v-1339h-238z" />
    <glyph glyph-name="uni042C" unicode="&#x42c;" horiz-adv-x="1208" 
d="M170 0v1339h238v-518h208c76.667 0 145.5 -7.5 206.5 -22.5s114.5 -38 160.5 -69s81.333 -72.167 106 -123.5s37 -111.333 37 -180c0 -74.667 -12.5 -139.667 -37.5 -195s-60.667 -99.666 -107 -132.999s-100 -58 -161 -74s-129.833 -24 -206.5 -24h-444zM408 189.999
h188c198 0 297 77.333 297 232c0 71.333 -24.833 124 -74.5 158s-125.167 51 -226.5 51h-184v-441z" />
    <glyph glyph-name="uni042D" unicode="&#x42d;" horiz-adv-x="1179" 
d="M209 1040l-127 154c48.667 48.667 109.834 89.167 183.501 121.5s151.167 48.5 232.5 48.5c85.333 0 163.333 -14.833 234 -44.5s132 -72.834 184 -129.501s92.5 -129.667 121.5 -219s43.5 -191 43.5 -305c0 -113.333 -15 -214.5 -45 -303.5s-71.5 -161.333 -124.5 -217
s-114.833 -98 -185.5 -127s-148 -43.5 -232 -43.5c-170.667 0 -317 65 -439 195l127 149c91.333 -91.333 193.666 -137 306.999 -137c102.667 0 184.667 34.333 246 103s97.666 172.334 108.999 311.001h-516v201h512c-15.333 120 -53.166 210 -113.499 270
s-140.833 90 -241.5 90c-102 0 -194 -39 -276 -117z" />
    <glyph glyph-name="uni042E" unicode="&#x42e;" horiz-adv-x="1902" 
d="M1233 182c102 0 181.833 44.333 239.5 133s86.5 209 86.5 361c0 150 -28.833 267.667 -86.5 353s-137.5 128 -239.5 128c-103.333 0 -183.833 -42.667 -241.5 -128s-86.5 -203 -86.5 -353c0 -152 29 -272.333 87 -361s138.333 -133 241 -133zM408 801h265.998
c19.333 177.333 78.5 315.5 177.5 414.5s226.167 148.5 381.5 148.5c173.333 0 311.5 -61.167 414.5 -183.5s154.5 -290.5 154.5 -504.5c0 -216 -51.667 -386.833 -155 -512.5s-241.333 -188.5 -414 -188.5c-161.333 0 -292.166 55.167 -392.499 165.5
s-157.166 261.5 -170.499 453.5h-262v-594h-238v1339h238v-538z" />
    <glyph glyph-name="uni042F" unicode="&#x42f;" horiz-adv-x="1228" 
d="M819 713v436.001h-188c-95.333 0 -166.333 -15.833 -213 -47.5s-70 -84.834 -70 -159.501c0 -75.333 24 -132.333 72 -171s118.333 -58 211 -58h188zM606 1339h451v-1339h-238v524h-198l-314 -524h-272l358 555c-86.667 26.667 -155 72.5 -205 137.5
s-75 148.167 -75 249.5c0 264.667 164.333 397 493 397z" />
    <glyph glyph-name="uni0430" unicode="&#x430;" horiz-adv-x="1056" 
d="M393 -25c-88 0 -159.5 27.168 -214.5 81.501s-82.5 125.5 -82.5 213.5c0 107.333 47 190.666 141 249.999s244.333 100.333 451 123c-4.66699 131.333 -66 197 -184 197c-76.667 0 -171 -33 -283 -99l-86 158c138.667 87.333 276.667 131 414 131
c124 0 217.5 -37 280.5 -111s94.5 -181.667 94.5 -323v-596h-195l-16 111h-8c-107.333 -90.667 -211.333 -136 -312 -136zM469 160.001c38.667 0 74.5 8.83203 107.5 26.499s70.167 45.5 111.5 83.5v226c-131.333 -16.667 -224.833 -42.167 -280.5 -76.5
s-83.5 -77.833 -83.5 -130.5c0 -43.333 13.167 -75.666 39.5 -96.999s61.5 -32 105.5 -32z" />
    <glyph glyph-name="uni0431" unicode="&#x431;" horiz-adv-x="1132" 
d="M324 635l0.000976562 -68c0 -130 22 -229 66 -297s108 -102 192 -102c65.333 0 117.833 29.667 157.5 89s59.5 138.333 59.5 237c0 96 -18.833 168.333 -56.5 217s-91.834 73 -162.501 73c-98.667 0 -184 -49.667 -256 -149zM954.001 1495l47.0049 -209.002
c-46 -32 -120.333 -55 -223 -69c-54 -7.33301 -94 -13.333 -120 -18s-57.333 -11.5 -94 -20.5s-63.334 -19.167 -80.001 -30.5s-35.834 -26.333 -57.501 -45s-37.334 -41 -47.001 -67s-18.834 -56.833 -27.501 -92.5s-15.334 -77.834 -20.001 -126.501
c39.333 47.333 86.166 83.5 140.499 108.5s111.833 37.5 172.5 37.5c116 0 210.833 -41.5 284.5 -124.5s110.5 -197.833 110.5 -344.5c0 -154 -43.167 -279 -129.5 -375s-195.166 -144 -326.499 -144c-154.667 0 -274.334 56.167 -359.001 168.5s-127 270.5 -127 474.5
c0 90.667 5.16699 172.334 15.5 245.001s24.666 135.667 42.999 189s42.333 100.5 72 141.5s60.834 74.833 93.501 101.5s71.834 49.667 117.501 69s90.667 34.333 135 45s95.833 20.334 154.5 29.001c58.667 8 103.167 15.833 133.5 23.5s60.833 18.834 91.5 33.501z" />
    <glyph glyph-name="uni0432" unicode="&#x432;" horiz-adv-x="1060" 
d="M150 0l0.000976562 1006h407c120 0 214.833 -20.667 284.5 -62s104.5 -107.666 104.5 -198.999c0 -50 -14.333 -93.5 -43 -130.5s-70.334 -63.5 -125.001 -79.5v-9c139.333 -34 209 -113 209 -237c0 -96.667 -37.5 -169 -112.5 -217s-173.833 -72 -296.5 -72h-428z
M381.001 597.999h154c122.667 0 184 41 184 123c0 83.333 -59.333 125 -178 125h-160v-248zM381.001 159.999h180c66 0 115 12.5 147 37.5s48 60.167 48 105.5c0 42 -17.167 75 -51.5 99s-84.833 36 -151.5 36h-172v-278z" />
    <glyph glyph-name="uni0433" unicode="&#x433;" horiz-adv-x="864" 
d="M150 0v1006h661v-187h-426v-819h-235z" />
    <glyph glyph-name="uni0434" unicode="&#x434;" horiz-adv-x="1142" 
d="M453 819l-31 -287c-17.333 -150 -49.333 -264.667 -96 -344h395v631h-268zM956 188l154 0.000976562v-153l-25 -387h-202v352h-625v-352h-205l-22 387v153h57c19.333 10 35.5 25.667 48.5 47s26.667 60.666 41 117.999s27.5 134.333 39.5 231l49 422h690v-818z" />
    <glyph glyph-name="uni0435" unicode="&#x435;" horiz-adv-x="1038" 
d="M580 -25c-143.333 0 -261.83 47.335 -355.497 142.002s-140.5 223 -140.5 385c0 79.333 13 152.666 39 219.999s60.667 123.166 104 167.499s92.666 78.833 147.999 103.5s112.666 37 171.999 37c132.667 0 235.167 -43.5 307.5 -130.5s108.5 -202.5 108.5 -346.5
c0 -46 -3.66699 -84.333 -11 -115h-639c10 -88 41.5 -156.667 94.5 -206s120.5 -74 202.5 -74c79.333 0 157.333 24.333 234 73l80 -147c-110.667 -72.667 -225.334 -109 -344.001 -109zM311.003 598.002h447c0 79.333 -17.333 140.833 -52 184.5s-85.667 65.5 -153 65.5
c-62 0 -115.333 -22 -160 -66s-72 -105.333 -82 -184z" />
    <glyph glyph-name="uni0436" unicode="&#x436;" horiz-adv-x="1478" 
d="M1141 524l317.001 -524h-254l-231 426h-129v-426h-209v426h-129l-232 -426h-254l318 526l-68 160c-18.667 46 -38.834 77.333 -60.501 94s-46.5 25 -74.5 25c-12.667 0 -25 -2 -37 -6l-39 219c20 8 44 12 72 12c67.333 0 123.833 -15.667 169.5 -47
s86.167 -86.666 121.5 -165.999l90 -203h123v392h209v-392h121l92 203c34.667 79.333 75 134.666 121 165.999s102.667 47 170 47c26 0 49 -4 69 -12l-37 -219c-12 4 -24.333 6 -37 6c-28.667 0 -53.5 -8.16699 -74.5 -24.5s-41.167 -47.833 -60.5 -94.5z" />
    <glyph glyph-name="uni0437" unicode="&#x437;" horiz-adv-x="954" 
d="M451 -25c-74 0 -141.834 9.16699 -203.501 27.5s-122.167 50.166 -181.5 95.499l96 152c77.333 -61.333 166.666 -92 267.999 -92c62 0 113.667 13.333 155 40s62 62.334 62 107.001c0 88.667 -68.333 133 -205 133h-149v160h129c62.667 0 110 11 142 33s48 53.333 48 94
c0 40 -15.667 70.5 -47 91.5s-75 31.5 -131 31.5c-92 0 -177.333 -26 -256 -78l-92 154c104.667 70.667 225.667 106 363 106c72 0 136.667 -9.5 194 -28.5s104.5 -49.833 141.5 -92.5s55.5 -95 55.5 -157c0 -47.333 -14.167 -90.833 -42.5 -130.5
s-68.833 -68.5 -121.5 -86.5v-9c136.667 -35.333 205 -116.333 205 -243c0 -63.333 -20.667 -118.833 -62 -166.5s-94.166 -83.167 -158.499 -106.5s-134.166 -35 -209.499 -35z" />
    <glyph glyph-name="uni0438" unicode="&#x438;" horiz-adv-x="1175" 
d="M150 0l-0.000976562 1006h229v-347c0 -31.333 -1 -66 -3 -104s-5.16699 -84.833 -9.5 -140.5s-7.16602 -95.5 -8.49902 -119.5h7l59.5 101.5c31 52.333 52.5 89.5 64.5 111.5l320 498h217v-1006h-229v346c0 57.333 7.33301 179 22 365h-8l-125 -213l-319 -498h-217z" />
    <glyph glyph-name="uni0439" unicode="&#x439;" horiz-adv-x="1175" 
d="M596 1174c-110.667 0 -193.501 29.5 -248.501 88.5s-84.167 137.167 -87.5 234.5h186c2 -62 14.333 -109.5 37 -142.5s60.334 -49.5 113.001 -49.5s90.167 16.5 112.5 49.5s34.5 80.5 36.5 142.5h187c-3.33301 -97.333 -32.5 -175.5 -87.5 -234.5
s-137.833 -88.5 -248.5 -88.5zM149.999 0l-0.000976562 1006h229v-347c0 -31.333 -1 -66 -3 -104s-5.16699 -84.833 -9.5 -140.5s-7.16602 -95.5 -8.49902 -119.5h7l59.5 101.5c31 52.333 52.5 89.5 64.5 111.5l320 498h217v-1006h-229v346c0 57.333 7.33301 179 22 365h-8
l-125 -213l-319 -498h-217z" />
    <glyph glyph-name="uni043A" unicode="&#x43a;" horiz-adv-x="1069" 
d="M709 530l342.001 -530.001h-260l-254 426h-152v-426h-235v1006h235v-392h147l95 203c37.333 82.667 78.166 138.834 122.499 168.501s100.5 44.5 168.5 44.5c27.333 0 51 -4 71 -12l-39 -219c-12 4 -24.333 6 -37 6c-27.333 0 -51.5 -8 -72.5 -24
s-41.833 -47.667 -62.5 -95z" />
    <glyph glyph-name="uni043B" unicode="&#x43b;" horiz-adv-x="1130" 
d="M487 819l-60.999 -502c-32 -228 -133 -342 -303 -342c-38 0 -73.667 7 -107 21l41 213c18.667 -5.33301 35 -8 49 -8c65.333 0 105.666 60 120.999 180c14.667 112 38.667 320.333 72 625h682v-1006h-236v819h-258z" />
    <glyph glyph-name="uni043C" unicode="&#x43c;" horiz-adv-x="1325" 
d="M150 0l0.000976562 1006h270l162 -406l80 -235h8c49.333 139.333 76.666 217.666 81.999 234.999l153 406h271v-1006h-213v352c0 72 8.66699 202.333 26 391h-8l-51.5 -141l-44.5 -119l-152 -393h-139l-156 393l-46 123l-50 137h-8c16 -218 24 -348.333 24 -391v-352
h-208z" />
    <glyph glyph-name="uni043D" unicode="&#x43d;" horiz-adv-x="1171" 
d="M150 0v1006h235v-385h401v385h236v-1006h-236v414h-401v-414h-235z" />
    <glyph glyph-name="uni043E" unicode="&#x43e;" horiz-adv-x="1124" 
d="M561 -25c-62.667 0 -122.667 12 -180 36s-108 57.833 -152 101.5s-79.167 99.167 -105.5 166.5s-39.5 141.666 -39.5 222.999s13.167 155.833 39.5 223.5s61.5 123.334 105.5 167.001s94.667 77.5 152 101.5s117.333 36 180 36c63.333 0 123.666 -12 180.999 -36
s108.166 -57.833 152.499 -101.5s79.666 -99.334 105.999 -167.001s39.5 -142.167 39.5 -223.5s-13.167 -155.666 -39.5 -222.999s-61.666 -122.833 -105.999 -166.5s-95.166 -77.5 -152.499 -101.5s-117.666 -36 -180.999 -36zM561 168c73.333 0 131.333 30.334 174 91.001
s64 141.667 64 243c0 102 -21.333 183.5 -64 244.5s-100.667 91.5 -174 91.5c-72.667 0 -130 -30.333 -172 -91s-63 -142.334 -63 -245.001c0 -101.333 21 -182.333 63 -243s99.333 -91 172 -91z" />
    <glyph glyph-name="uni043F" unicode="&#x43f;" horiz-adv-x="1155" 
d="M150 0v1006h854v-1006h-236v819h-383v-819h-235z" />
    <glyph glyph-name="uni0440" unicode="&#x440;" horiz-adv-x="1155" 
d="M150 -397l-0.00195312 1403h194l16 -107h9c102 87.333 203 131 303 131c124 0 220.833 -46 290.5 -138s104.5 -216.667 104.5 -374c0 -67.333 -7.66699 -130.166 -23 -188.499s-36.666 -108.833 -63.999 -151.5s-59.166 -79.5 -95.499 -110.5s-75.5 -54.167 -117.5 -69.5
s-85.333 -23 -130 -23c-85.333 0 -171.333 37 -258 111l6 -168v-315h-235zM587.998 169.999c69.333 0 125.833 30.167 169.5 90.5s65.5 145.5 65.5 255.5c0 213.333 -72.333 320 -217 320c-70 0 -143.667 -37.667 -221 -113v-469c68 -56 135.667 -84 203 -84z" />
    <glyph glyph-name="uni0441" unicode="&#x441;" horiz-adv-x="946" 
d="M569 -25c-141.333 0 -257.499 47.167 -348.499 141.5s-136.5 222.833 -136.5 385.5c0 81.333 13.667 155.833 41 223.5s64.166 123.334 110.499 167.001s99.833 77.5 160.5 101.5s124.667 36 192 36c108.667 0 207 -37.333 295 -112l-115 -154
c-55.333 49.333 -111.333 74 -168 74c-81.333 0 -147.333 -30.833 -198 -92.5s-76 -142.834 -76 -243.501c0 -100 24.833 -180.667 74.5 -242s114.167 -92 193.5 -92c68.667 0 137.667 28.667 207 86l96 -156c-94 -82 -203.333 -123 -328 -123z" />
    <glyph glyph-name="uni0442" unicode="&#x442;" horiz-adv-x="974" 
d="M369 0v819h-316v187h869v-187h-316v-819h-237z" />
    <glyph glyph-name="uni0443" unicode="&#x443;" horiz-adv-x="1013" 
d="M217 -414c-44 0 -87.667 6.99805 -131 20.998l43 184c28 -9.33301 52 -14 72 -14c95.333 0 162 57.333 200 172l19 63l-395 994h239l174 -494l43 -139c19.333 -64 34.333 -112 45 -144h9l36 137c16.667 64.667 29.667 113.334 39 146.001l152 494h227l-364 -1051
c-45.333 -123.333 -98.833 -215.666 -160.5 -276.999s-144.167 -92 -247.5 -92z" />
    <glyph glyph-name="uni0444" unicode="&#x444;" horiz-adv-x="1550" 
d="M659 -397l-0.000976562 288.001l9 152c-67.333 -45.333 -132.333 -68 -195 -68c-117.333 0 -210.833 46.667 -280.5 140s-104.5 222.333 -104.5 387c0 79.333 10.667 152.666 32 219.999s49.833 123.166 85.5 167.499s76.5 78.833 122.5 103.5s94.333 37 145 37
c67.333 0 132.333 -21 195 -63l-9 147v332h232v-332l-8 -153c72 46 142.333 69 211 69c114.667 0 204.667 -46.167 270 -138.5s98 -216.833 98 -373.5c0 -165.333 -38 -297.166 -114 -395.499s-167.667 -147.5 -275 -147.5c-65.333 0 -128.666 21.333 -189.999 64l8 -148
v-288h-232zM529.999 170.001c52 0 98 19 138 57v555c-43.333 36 -92 54 -146 54c-54.667 0 -100 -29.667 -136 -89s-54 -140.333 -54 -243c0 -108 17 -190.667 51 -248s83 -86 147 -86zM1022 170.001c59.333 0 107 30 143 90s54 145.333 54 256
c0 102.667 -15.833 181.667 -47.5 237s-79.5 83 -143.5 83c-52.667 0 -101 -18.667 -145 -56v-557c42 -35.333 88.333 -53 139 -53z" />
    <glyph glyph-name="uni0445" unicode="&#x445;" horiz-adv-x="985" 
d="M29 0l319 524l-299 482h254l113 -191l92 -170h8l38.5 84.5l39.5 85.5l96 191h244l-297 -508l319 -498h-254l-122 199c-42.667 76.667 -77 136 -103 178h-8l-88 -178l-107 -199h-245z" />
    <glyph glyph-name="uni0446" unicode="&#x446;" horiz-adv-x="1177" 
d="M993 188h154v-153l-25 -387h-202v352h-770v1006h235v-818h373v818h235v-818z" />
    <glyph glyph-name="uni0447" unicode="&#x447;" horiz-adv-x="1087" 
d="M702 0l-0.000976562 371c-66.667 -12.667 -128.667 -19 -186 -19c-270 0 -405 123.667 -405 371v283h235v-283c0 -62.667 17.333 -108.667 52 -138s90.334 -44 167.001 -44c47.333 0 93 4.66699 137 14v451h236v-1006h-236z" />
    <glyph glyph-name="uni0448" unicode="&#x448;" horiz-adv-x="1591" 
d="M150 0v1006h233v-818h299v818h227v-818h299v818h234v-1006h-1292z" />
    <glyph glyph-name="uni0449" unicode="&#x449;" horiz-adv-x="1626" 
d="M1442 188h151v-153l-22 -387h-203v352h-1218v1006h233v-818h299v818h227v-818h299v818h234v-818z" />
    <glyph glyph-name="uni044A" unicode="&#x44a;" horiz-adv-x="1249" 
d="M381 0v819h-328v187h563v-344h138c128.667 0 230 -26.5 304 -79.5s111 -135.833 111 -248.5c0 -115.333 -37 -199.833 -111 -253.5s-175.333 -80.5 -304 -80.5h-373zM616 182h121c136.667 0 205 51.333 205 154c0 50 -16.833 87 -50.5 111s-85.167 36 -154.5 36h-121
v-301z" />
    <glyph glyph-name="uni044B" unicode="&#x44b;" horiz-adv-x="1447" 
d="M150 0l0.000976562 1006h235v-344h107c62 0 117.833 -6.16699 167.5 -18.5s93.5 -31.166 131.5 -56.499s67.167 -59.5 87.5 -102.5s30.5 -93.167 30.5 -150.5c0 -115.333 -37.333 -199.833 -112 -253.5s-176.334 -80.5 -305.001 -80.5h-342zM385.001 181.999h92
c135.333 0 203 51.333 203 154c0 98 -67.667 147 -203 147h-92v-301zM1063 -0.000976562v1006h235v-1006h-235z" />
    <glyph glyph-name="uni044C" unicode="&#x44c;" horiz-adv-x="1032" 
d="M150 0v1006h235v-344h152c128.667 0 230 -26.5 304 -79.5s111 -135.833 111 -248.5c0 -115.333 -37 -199.833 -111 -253.5s-175.333 -80.5 -304 -80.5h-387zM385 182h135c136.667 0 205 51.333 205 154c0 98 -68.333 147 -205 147h-135v-301z" />
    <glyph glyph-name="uni044D" unicode="&#x44d;" horiz-adv-x="946" 
d="M168 774l-105.002 139.001c37.333 35.333 83.333 63.666 138 84.999s114.667 32 180 32c67.333 0 129.833 -11 187.5 -33s108.5 -54.167 152.5 -96.5s78.5 -97.5 103.5 -165.5s37.5 -145.667 37.5 -233c0 -169.333 -44.667 -299.5 -134 -390.5
s-205.666 -136.5 -348.999 -136.5c-62.667 0 -123.167 10.5 -181.5 31.5s-109.166 51.5 -152.499 91.5l92 142c64 -54.667 136.333 -82 217 -82c82 0 147.5 23 196.5 69s77.833 116.333 86.5 211h-395v160h391c-26 166.667 -114 250 -264 250c-74 0 -141 -24.667 -201 -74z
" />
    <glyph glyph-name="uni044E" unicode="&#x44e;" horiz-adv-x="1550" 
d="M1008 168c68.667 0 122 30.165 160 90.498s57 141.5 57 243.5c0 102.667 -19 184.334 -57 245.001s-91.333 91 -160 91c-67.333 0 -121.5 -30.667 -162.5 -92s-61.5 -142.666 -61.5 -243.999c0 -100.667 20.5 -181.5 61.5 -242.5s95.167 -91.5 162.5 -91.5zM385 617.998
l186.001 -0.000976562c20 128 70.833 228.667 152.5 302s180.5 110 296.5 110c62 0 120 -11.833 174 -35.5s101.167 -57.667 141.5 -102s72.166 -100 95.499 -167s35 -141.5 35 -223.5c0 -162 -42.333 -290.333 -127 -385s-191 -142 -319 -142
c-120.667 0 -222 38.833 -304 116.5s-131 183.834 -147 318.501h-184v-410h-235v1006h235v-388z" />
    <glyph glyph-name="uni044F" unicode="&#x44f;" horiz-adv-x="1085" 
d="M698 526v303h-125c-137.333 0 -206 -48.333 -206 -145c0 -49.333 18 -88 54 -116s86.667 -42 152 -42h125zM541 1006l393 0.000976562v-1006h-236v360h-147h-4l-236 -360h-264l285 401c-132.667 57.333 -199 153.666 -199 288.999c0 57.333 10.333 106.833 31 148.5
s50 74.5 88 98.5s80.833 41.5 128.5 52.5s101.167 16.5 160.5 16.5z" />
    <glyph glyph-name="uni0451" unicode="&#x451;" horiz-adv-x="1038" 
d="M580 -25c-143.333 0 -261.83 47.335 -355.497 142.002s-140.5 223 -140.5 385c0 79.333 13 152.666 39 219.999s60.667 123.166 104 167.499s92.666 78.833 147.999 103.5s112.666 37 171.999 37c132.667 0 235.167 -43.5 307.5 -130.5s108.5 -202.5 108.5 -346.5
c0 -46 -3.66699 -84.333 -11 -115h-639c10 -88 41.5 -156.667 94.5 -206s120.5 -74 202.5 -74c79.333 0 157.333 24.333 234 73l80 -147c-110.667 -72.667 -225.334 -109 -344.001 -109zM311.003 598.002h447c0 79.333 -17.333 140.833 -52 184.5s-85.667 65.5 -153 65.5
c-62 0 -115.333 -22 -160 -66s-72 -105.333 -82 -184zM336.003 1184c-36 0 -65.833 12 -89.5 36s-35.5 53.667 -35.5 89s11.833 65 35.5 89s53.5 36 89.5 36c36.667 0 66.667 -12 90 -36s35 -53.667 35 -89s-11.667 -65 -35 -89s-53.333 -36 -90 -36zM758.003 1184
c-36.667 0 -66.667 12 -90 36s-35 53.667 -35 89s11.667 65 35 89s53.333 36 90 36c36 0 65.833 -12 89.5 -36s35.5 -53.667 35.5 -89s-11.833 -65 -35.5 -89s-53.5 -36 -89.5 -36z" />
    <glyph glyph-name=".null" horiz-adv-x="0" 
 />
    <glyph glyph-name="nonmarkingreturn" horiz-adv-x="682" 
 />
    <glyph glyph-name="uni0431.srb" horiz-adv-x="1097" 
d="M543 168c73.333 0 132.167 26.1641 176.5 78.4971s66.5 123.833 66.5 214.5c0 64.667 -15.833 119.834 -47.5 165.501s-79.167 92.834 -142.5 141.501c-90 -22.667 -160.667 -63.167 -212 -121.5s-77 -129.833 -77 -214.5c0 -79.333 23 -143.166 69 -191.499
s101.667 -72.5 167 -72.5zM971.001 1495l45.001 -209.003c-56 -32.667 -134 -52.334 -234 -59.001c-160 -15.333 -250 -24.666 -270 -27.999c-45.333 -8 -71.666 -22 -78.999 -42c-2 -6 -3 -13.333 -3 -22c0 -17.333 10.667 -33.833 32 -49.5s58 -38 110 -67
s96.333 -55.833 133 -80.5c50 -34.667 92.167 -67.334 126.5 -98.001s65.666 -65.334 93.999 -104.001s49.5 -81.167 63.5 -127.5s21 -97.5 21 -153.5c0 -142.667 -43 -258.334 -129 -347.001s-200.667 -133 -344 -133c-60.667 0 -118.334 10.5 -173.001 31.5
s-102.334 50.5 -143.001 88.5s-73 85.333 -97 142s-36 118.334 -36 185.001c0 114.667 32.333 208.667 97 282s154 128 268 164c-39.333 27.333 -71.166 50.5 -95.499 69.5s-50 41.833 -77 68.5s-47 53.334 -60 80.001s-19.5 54.334 -19.5 83.001c0 26 2.5 49.5 7.5 70.5
s13.167 39.667 24.5 56s24 31 38 44s32 24.333 54 34s43.833 17.834 65.5 24.501s48.334 12.834 80.001 18.501s61.5 10.334 89.5 14.001s62 7.5 102 11.5c98 6.66699 166.167 13.5 204.5 20.5s73.166 17.833 104.499 32.5z" />
    <glyph glyph-name="zero.dnom" 
d="M381 -25c-96 0 -173.333 37.833 -232 113.5s-88 179.834 -88 312.501c0 131.333 29.333 234.5 88 309.5s136 112.5 232 112.5s173.167 -37.333 231.5 -112s87.5 -178 87.5 -310c0 -132.667 -29.167 -236.834 -87.5 -312.501s-135.5 -113.5 -231.5 -113.5zM381 113
c45.333 0 81.5 23.832 108.5 71.499s40.5 119.834 40.5 216.501c0 96 -13.5 167.5 -40.5 214.5s-63.167 70.5 -108.5 70.5s-81.666 -23.5 -108.999 -70.5s-41 -118.5 -41 -214.5s13.667 -168 41 -216s63.666 -72 108.999 -72z" />
    <glyph glyph-name="one.dnom" 
d="M344 0v602h-176v111c48 8 87.5 18.333 118.5 31s62.5 31 94.5 55h141v-799h-178z" />
    <glyph glyph-name="two.dnom" 
d="M98 0l0.00292969 98.001c131.333 112.667 225 200.167 281 262.5s84 118.833 84 169.5c0 45.333 -12 81 -36 107s-57 39 -99 39c-54.667 0 -107.334 -35.667 -158.001 -107l-102 95c76 106 171.333 159 286 159c85.333 0 153.5 -23.167 204.5 -69.5
s76.5 -111.166 76.5 -194.499c0 -27.333 -4.83301 -55.333 -14.5 -84s-20.334 -53.834 -32.001 -75.501s-31.334 -49.334 -59.001 -83.001s-49.667 -59.667 -66 -78l-82.5 -88.5h289v-150h-572z" />
    <glyph glyph-name="three.dnom" 
d="M375 -25c-66 0 -126.166 14.167 -180.499 42.5s-98.166 67.5 -131.499 117.5l111 86c49.333 -72 111.333 -108 186 -108c39.333 0 72.166 10.5 98.499 31.5s39.5 49.833 39.5 86.5c0 40 -18.833 70.5 -56.5 91.5s-91.834 31.5 -162.501 31.5v105
c58.667 0 104.667 11 138 33s50 52 50 90c0 31.333 -11 56.5 -33 75.5s-51.333 28.5 -88 28.5c-50.667 0 -99.667 -29.333 -147 -88l-103 90c40.667 46 83 80 127 102s94.667 33 152 33c74.667 0 137.667 -20 189 -60s77 -93 77 -159c0 -82 -42.333 -145.333 -127 -190
c46 -15.333 83.833 -39.833 113.5 -73.5s44.5 -74.167 44.5 -121.5c0 -72 -29 -130.667 -87 -176s-128 -68 -210 -68z" />
    <glyph glyph-name="four.dnom" 
d="M250 315h194v113l11 231h-9l-92 -161zM721 315v-120h-119v-195h-158v195h-366v90l311 514h213v-484h119z" />
    <glyph glyph-name="five.dnom" 
d="M379 -25c-136.667 0 -242.001 53.332 -316.001 159.999l111 86c50.667 -72 113.334 -108 188.001 -108c40 0 73.333 14 100 42s40 63 40 105c0 45.333 -13.5 81.333 -40.5 108s-61.5 40 -103.5 40c-43.333 0 -88.333 -18.667 -135 -56l-80 56l37 391h461v-152h-319
l-17 -151c41.333 13.333 78.333 20 111 20c74 0 135.833 -23.667 185.5 -71s74.5 -111.666 74.5 -192.999c0 -80.667 -28 -147 -84 -199s-127 -78 -213 -78z" />
    <glyph glyph-name="six.dnom" 
d="M401 113c35.333 0 64.332 12 86.999 36s34 57 34 99s-11.167 75 -33.5 99s-54.166 36 -95.499 36c-50.667 0 -99.667 -24.667 -147 -74c6.66699 -64.667 24 -113.5 52 -146.5s62.333 -49.5 103 -49.5zM658.999 750l-68.999 -115c-48 34 -93.667 51 -137 51
c-60 0 -107.833 -22 -143.5 -66s-56.834 -108 -63.501 -192c52 52 114 78 186 78c78 0 139.167 -22.833 183.5 -68.5s66.5 -107.5 66.5 -185.5c0 -78.667 -26.167 -144.5 -78.5 -197.5s-117.5 -79.5 -195.5 -79.5c-101.333 0 -181 37 -239 111s-87 174.333 -87 301
c0 136.667 32.5 243.5 97.5 320.5s152.5 115.5 262.5 115.5c82.667 0 155 -24.333 217 -73z" />
    <glyph glyph-name="seven.dnom" 
d="M254 0c8 129.333 29.499 242.667 64.499 340s90.5 200.333 166.5 309h-383v150h582v-97c-88.667 -113.333 -149.667 -221.5 -183 -324.5s-53.666 -228.833 -60.999 -377.5h-186z" />
    <glyph glyph-name="eight.dnom" 
d="M379 -25c-85.333 0 -155.5 21.999 -210.5 65.999s-82.5 97.333 -82.5 160c0 44.667 14.167 85.667 42.5 123s63.166 68 104.499 92v8c-38.667 26 -68 53.333 -88 82s-30 62.667 -30 102c0 64 25.333 115.833 76 155.5s113.334 59.5 188.001 59.5
c77.333 0 141.333 -19.5 192 -58.5s76 -91.167 76 -156.5c0 -72 -40.333 -133.333 -121 -184v-8c98.667 -51.333 148 -121.666 148 -210.999c0 -64.667 -28 -119.167 -84 -163.5s-126.333 -66.5 -211 -66.5zM420 470.999c44.667 40.667 67.002 83 67.002 127
c0 29.333 -10.333 53 -31 71s-46.334 27 -77.001 27c-28.667 0 -53.334 -8.83301 -74.001 -26.5s-31 -39.5 -31 -65.5c0 -32 12.167 -57.667 36.5 -77s60.833 -38 109.5 -56zM379.002 97.999c36.667 0 68.001 11.499 94.001 34.499s39 50.5 39 82.5
c0 11.333 -1.33301 21.666 -4 30.999s-7.66699 17.833 -15 25.5s-14 14.334 -20 20.001s-15.667 11.834 -29 18.501l-31.5 15.5c-7.66699 3.66699 -20.334 9.16699 -38.001 16.5l-38.5 16c-58.667 -36 -88 -83 -88 -141c0 -32.667 12.333 -60.667 37 -84s56 -35 94 -35z" />
    <glyph glyph-name="nine.dnom" 
d="M365 416c50.667 0 99.665 23.666 146.998 70.999c-6 66 -23 115.667 -51 149s-63 50 -105 50c-35.333 0 -64.166 -12 -86.499 -36s-33.5 -57 -33.5 -99c0 -41.333 11.333 -74.166 34 -98.499s54.334 -36.5 95.001 -36.5zM97.998 48.999l71.9971 115
c46 -34 91.667 -51 137 -51c58.667 0 105.834 22 141.501 66s56.834 107.333 63.501 190c-52.667 -50.667 -114.667 -76 -186 -76c-77.333 0 -138.333 23 -183 69s-67 107.667 -67 185c0 78.667 26.167 144.334 78.5 197.001s117.5 79 195.5 79
c102 0 181.833 -36.833 239.5 -110.5s86.5 -173.834 86.5 -300.501c0 -136.667 -32.667 -243.667 -98 -321s-153 -116 -263 -116c-79.333 0 -151.666 24.667 -216.999 74z" />
    <glyph glyph-name="zero.numr" 
d="M381 516c-96 0 -173.333 37.833 -232 113.5s-88 179.834 -88 312.501c0 131.333 29.333 234.5 88 309.5s136 112.5 232 112.5s173.167 -37.333 231.5 -112s87.5 -178 87.5 -310c0 -132.667 -29.167 -236.834 -87.5 -312.501s-135.5 -113.5 -231.5 -113.5zM381 653
c45.333 0 81.5 24 108.5 72s40.5 120.333 40.5 217c0 96 -13.5 167.5 -40.5 214.5s-63.167 70.5 -108.5 70.5s-81.666 -23.5 -108.999 -70.5s-41 -118.5 -41 -214.5c0 -96.667 13.667 -169 41 -217s63.666 -72 108.999 -72z" />
    <glyph glyph-name="one.numr" 
d="M344 541v602h-176v110c48 8 87.5 18.333 118.5 31s62.5 31 94.5 55h141v-798h-178z" />
    <glyph glyph-name="two.numr" 
d="M98 541l0.000976562 97.999c131.333 112.667 225 200.167 281 262.5s84 118.833 84 169.5c0 45.333 -12 81 -36 107s-57 39 -99 39c-54.667 0 -107.334 -35.667 -158.001 -107l-102 94c76.667 106.667 172 160 286 160c85.333 0 153.5 -23.167 204.5 -69.5
s76.5 -111.166 76.5 -194.499c0 -27.333 -4.83301 -55.333 -14.5 -84s-20.5 -54 -32.5 -76s-31.5 -49.667 -58.5 -83s-49.167 -59.5 -66.5 -78.5l-82 -88.5h289v-149h-572z" />
    <glyph glyph-name="three.numr" 
d="M375 516c-66 0 -126.166 14.167 -180.499 42.5s-98.166 67.5 -131.499 117.5l111 86c49.333 -72.667 111.333 -109 186 -109c39.333 0 72.166 10.667 98.499 32s39.5 50.333 39.5 87c0 40 -18.833 70.5 -56.5 91.5s-91.834 31.5 -162.501 31.5v104
c58.667 0 104.667 11 138 33s50 52 50 90c0 31.333 -11 56.666 -33 75.999s-51.333 29 -88 29c-50.667 0 -99.667 -29.333 -147 -88l-103 90c40.667 46 83 80 127 102s94.667 33 152 33c74.667 0 137.667 -20 189 -60s77 -93 77 -159
c0 -82.667 -42.333 -146.334 -127 -191.001c46.667 -15.333 84.667 -39.666 114 -72.999s44 -73.666 44 -120.999c0 -72 -29 -130.667 -87 -176s-128 -68 -210 -68z" />
    <glyph glyph-name="four.numr" 
d="M250 856h194v113l11 231h-9l-92 -162zM721 856v-121h-119v-194h-158v194h-366v90l311 514h213v-483h119z" />
    <glyph glyph-name="five.numr" 
d="M379 516c-136.667 0 -242 53.333 -316 160l111 86c51.333 -72.667 114 -109 188 -109c40 0 73.333 14.167 100 42.5s40 63.5 40 105.5c0 45.333 -13.5 81.166 -40.5 107.499s-61.5 39.5 -103.5 39.5c-44.667 0 -89.667 -18.333 -135 -55l-80 55l37 391h461v-151h-319
l-17 -152c43.333 14 80.333 21 111 21c74 0 135.833 -23.667 185.5 -71s74.5 -111.666 74.5 -192.999c0 -80.667 -28 -147 -84 -199s-127 -78 -213 -78z" />
    <glyph glyph-name="six.numr" 
d="M401 653c35.333 0 64.332 12 86.999 36s34 57 34 99s-11.167 75.167 -33.5 99.5s-54.166 36.5 -95.499 36.5c-50.667 0 -99.667 -24.667 -147 -74c6.66699 -65.333 24 -114.5 52 -147.5s62.333 -49.5 103 -49.5zM658.999 1290l-68.999 -114c-48 34 -93.667 51 -137 51
c-60 0 -107.833 -22 -143.5 -66s-56.834 -108 -63.501 -192c52 52 114 78 186 78c78 0 139.167 -22.833 183.5 -68.5s66.5 -107.5 66.5 -185.5c0 -78.667 -26.167 -144.5 -78.5 -197.5s-117.5 -79.5 -195.5 -79.5c-101.333 0 -181 37 -239 111s-87 174.333 -87 301
c0 136.667 32.5 243.5 97.5 320.5s152.5 115.5 262.5 115.5c82 0 154.333 -24.667 217 -74z" />
    <glyph glyph-name="seven.numr" 
d="M254 541c8 129.333 29.499 242.667 64.499 340s90.5 200.333 166.5 309h-383v149h582v-96c-88.667 -113.333 -149.667 -221.5 -183 -324.5s-53.666 -228.833 -60.999 -377.5h-186z" />
    <glyph glyph-name="eight.numr" 
d="M379 516c-85.333 0 -155.5 21.8311 -210.5 65.498s-82.5 96.834 -82.5 159.501c0 44.667 14.167 85.667 42.5 123s63.166 68 104.499 92v9c-38.667 26 -68 53.333 -88 82s-30 62.667 -30 102c0 64 25.333 115.833 76 155.5s113.334 59.5 188.001 59.5
c77.333 0 141.333 -19.5 192 -58.5s76 -91.167 76 -156.5c0 -72 -40.333 -133.333 -121 -184v-9c98.667 -51.333 148 -121.666 148 -210.999c0 -64.667 -28 -119 -84 -163s-126.333 -66 -211 -66zM420 1012c44.667 40.667 67.002 83 67.002 127c0 29.333 -10.333 53 -31 71
s-46.334 27 -77.001 27c-28.667 0 -53.334 -8.83301 -74.001 -26.5s-31 -39.5 -31 -65.5c0 -32 12.167 -57.667 36.5 -77s60.833 -38 109.5 -56zM379.002 638.998c36.667 0 68.001 11.499 94.001 34.499s39 50.5 39 82.5c0 11.333 -1.33301 21.666 -4 30.999
s-7.66699 17.833 -15 25.5s-14 14.334 -20 20.001s-15.667 11.834 -29 18.501l-31.5 15.5c-7.66699 3.66699 -20.334 9.16699 -38.001 16.5l-38.5 16c-58.667 -36 -88 -83 -88 -141c0 -32.667 12.333 -60.667 37 -84s56 -35 94 -35z" />
    <glyph glyph-name="nine.numr" 
d="M365 956c50 0 98.998 24 146.998 72c-6 66 -23 115.667 -51 149s-63 50 -105 50c-35.333 0 -64.166 -12 -86.499 -36s-33.5 -57 -33.5 -99c0 -41.333 11.333 -74.333 34 -99s54.334 -37 95.001 -37zM97.998 590l71.9961 115c46.667 -34.667 92.334 -52 137.001 -52
c58.667 0 105.834 22 141.501 66s56.834 107.333 63.501 190c-52 -50 -114 -75 -186 -75c-77.333 0 -138.333 22.833 -183 68.5s-67 107.167 -67 184.5c0 78.667 26.167 144.5 78.5 197.5s117.5 79.5 195.5 79.5c102 0 181.833 -37 239.5 -111s86.5 -174.333 86.5 -301
c0 -136.667 -32.667 -243.5 -98 -320.5s-153 -115.5 -263 -115.5c-79.333 0 -151.666 24.667 -216.999 74z" />
    </font>
</defs>
</svg>
